<svg width="944" height="199" fill="none" xmlns="http://www.w3.org/2000/svg"><path d="M3.977 86.78V4.246h23.139v30.892h29.7V4.245h23.139V86.78h-23.14V55.417h-29.7v31.364H3.978zm107.913 1.416c-6.362 0-11.57-1.73-15.626-5.188-4.055-3.537-6.082-8.45-6.082-14.739 0-6.446 2.266-11.398 6.798-14.856 4.533-3.459 10.695-5.188 18.488-5.188 5.645 0 10.814.825 15.505 2.476V49.64c0-6.918-4.293-10.376-12.881-10.376-5.805 0-11.729 1.179-17.772 3.537L95.668 27c8.111-3.301 16.818-4.952 26.121-4.952 11.133 0 19.323 2.594 24.571 7.782 4.612 4.48 6.918 11.24 6.918 20.28v36.67h-22.424v-6.603c-4.85 5.345-11.172 8.018-18.964 8.018zM120 74.165c3.34 0 6.043-.944 8.111-2.83 2.067-1.965 3.101-4.52 3.101-7.664v-2.948c-2.624-1.1-5.566-1.65-8.826-1.65-3.26 0-5.805.746-7.634 2.24-1.829 1.414-2.743 3.38-2.743 5.895 0 2.122.715 3.812 2.147 5.07 1.511 1.258 3.459 1.887 5.844 1.887zm44.804 12.615V22.993h22.662v45.749h15.863v-45.75h22.663v45.749h15.863V22.992h22.662v63.789h-99.713zm111.936 0V22.993h21.947v31.954l21.469-31.954h20.873v63.789h-21.946V54.828l-21.47 31.953H276.74zm143.603 1.534c-22.98 0-34.47-13.167-34.47-39.5 0-4.166.159-7.939.477-11.319.398-3.38 1.193-6.957 2.386-10.73 1.192-3.851 2.783-7.114 4.771-9.786 2.067-2.751 4.89-5.188 8.468-7.31 3.578-2.123 7.793-3.577 12.643-4.363L447.538 0l2.743 17.333-33.874 6.13c-3.498.63-6.401 1.848-8.707 3.656-2.306 1.73-3.816 3.34-4.532 4.834-.716 1.494-1.113 2.948-1.193 4.363 1.193-1.965 3.737-4.009 7.634-6.131 3.976-2.201 8.826-3.302 14.551-3.302 8.429 0 15.665 2.712 21.708 8.136 6.043 5.345 9.065 12.302 9.065 20.87 0 9.04-3.3 16.703-9.9 22.992-6.6 6.288-14.829 9.433-24.69 9.433zm.239-18.984c3.658 0 6.6-1.257 8.826-3.773 2.306-2.515 3.459-5.66 3.459-9.432 0-3.616-1.192-6.721-3.578-9.315-2.385-2.594-5.367-3.891-8.946-3.891-3.657 0-6.639 1.258-8.945 3.773-2.227 2.515-3.34 5.66-3.34 9.433 0 3.615 1.193 6.72 3.578 9.314 2.386 2.594 5.368 3.891 8.946 3.891zM483.589 106c-7.157 0-14.074-1.847-20.754-5.542l7.037-15.682c3.817 2.28 7.117 3.42 9.9 3.42 2.227 0 3.976-.865 5.248-2.594l-25.286-62.61h23.736l12.881 38.439 12.166-38.439h23.259l-23.617 62.256c-2.862 7.546-6.082 12.891-9.661 16.036-3.578 3.144-8.548 4.716-14.909 4.716zm50.689-6.25V68.74h5.964c1.988-5.659 3.419-11.593 4.294-17.803.954-6.21 1.431-14.503 1.431-24.88v-3.065h57.49v45.749h7.515l-2.147 31.01h-19.323V86.78h-33.755l-1.192 12.97h-20.277zm29.103-31.01h17.295V40.797h-13.12v1.062c-.239 9.432-1.631 18.393-4.175 26.883zM636.177 106c-7.157 0-14.075-1.847-20.754-5.542l7.037-15.682c3.817 2.28 7.117 3.42 9.9 3.42 2.226 0 3.976-.865 5.248-2.594l-25.286-62.61h23.736l12.881 38.439 12.166-38.439h23.259l-23.617 62.256c-2.862 7.546-6.083 12.891-9.661 16.036-3.578 3.144-8.548 4.716-14.909 4.716zm141.338-6.25V86.78h-85.759V22.993h22.662v45.749h15.864v-45.75h22.662v45.749h15.864V22.992h22.662v45.749h7.514l-2.147 31.01h-19.322zm27.575-12.97V22.993h21.947v31.954l21.469-31.954h20.874v63.789h-21.947V54.828L825.964 86.78H805.09zm108.377 1.534c-10.179 0-18.488-3.066-24.929-9.197-6.441-6.132-9.661-14.189-9.661-24.172 0-9.432 3.061-17.332 9.184-23.7 6.123-6.445 13.915-9.668 23.378-9.668 10.576 0 18.646 3.302 24.213 9.905 5.566 6.602 8.349 14.935 8.349 24.996 0 2.044-.04 3.577-.119 4.599h-43.178c1.829 6.996 6.481 10.494 13.955 10.494 5.089 0 9.86-2.162 14.313-6.485l12.524 10.258c-6.918 8.646-16.261 12.97-28.029 12.97zM900.346 49.64h22.424c-.398-3.538-1.59-6.328-3.578-8.372-1.988-2.122-4.533-3.184-7.634-3.184-2.942 0-5.407 1.062-7.395 3.184-1.908 2.044-3.181 4.834-3.817 8.372z" opacity=".4" fill="#D2302F"/><path d="M0 86.78V4.246h23.14v30.892h29.699V4.245h23.14V86.78h-23.14V55.417h-29.7v31.364H0zm107.913 1.416c-6.361 0-11.57-1.73-15.625-5.188-4.055-3.537-6.083-8.45-6.083-14.739 0-6.446 2.266-11.398 6.799-14.856 4.532-3.459 10.695-5.188 18.487-5.188 5.646 0 10.814.825 15.506 2.476V49.64c0-6.918-4.294-10.376-12.882-10.376-5.804 0-11.728 1.179-17.772 3.537L91.692 27c8.11-3.301 16.817-4.952 26.121-4.952 11.132 0 19.322 2.594 24.57 7.782 4.612 4.48 6.918 11.24 6.918 20.28v36.67h-22.423v-6.603c-4.851 5.345-11.172 8.018-18.965 8.018zm8.111-14.031c3.339 0 6.043-.944 8.11-2.83 2.068-1.965 3.101-4.52 3.101-7.664v-2.948c-2.624-1.1-5.566-1.65-8.826-1.65-3.26 0-5.805.746-7.633 2.24-1.829 1.414-2.744 3.38-2.744 5.895 0 2.122.716 3.812 2.147 5.07 1.511 1.258 3.459 1.887 5.845 1.887zm44.803 12.615V22.993h22.662v45.749h15.864v-45.75h22.662v45.749h15.864V22.992h22.662v63.789h-99.714zm111.937 0V22.993h21.946v31.954l21.47-31.954h20.873v63.789h-21.947V54.828L293.637 86.78h-20.873zm143.603 1.534c-22.98 0-34.471-13.167-34.471-39.5 0-4.166.16-7.939.478-11.319.397-3.38 1.192-6.957 2.385-10.73 1.193-3.851 2.783-7.114 4.771-9.786 2.068-2.751 4.89-5.188 8.469-7.31 3.578-2.123 7.792-3.577 12.643-4.363L443.562 0l2.743 17.333-33.874 6.13c-3.499.63-6.401 1.848-8.707 3.656-2.306 1.73-3.817 3.34-4.533 4.834-.715 1.494-1.113 2.948-1.192 4.363 1.192-1.965 3.737-4.009 7.633-6.131 3.976-2.201 8.826-3.302 14.552-3.302 8.428 0 15.664 2.712 21.708 8.136 6.043 5.345 9.065 12.302 9.065 20.87 0 9.04-3.3 16.703-9.9 22.992-6.6 6.288-14.83 9.433-24.69 9.433zm.238-18.984c3.658 0 6.6-1.257 8.827-3.773 2.306-2.515 3.459-5.66 3.459-9.432 0-3.616-1.193-6.721-3.579-9.315-2.385-2.594-5.367-3.891-8.945-3.891-3.658 0-6.64 1.258-8.946 3.773-2.226 2.515-3.339 5.66-3.339 9.433 0 3.615 1.192 6.72 3.578 9.314 2.385 2.594 5.367 3.891 8.945 3.891zM479.612 106c-7.156 0-14.074-1.847-20.753-5.542l7.037-15.682c3.817 2.28 7.116 3.42 9.9 3.42 2.226 0 3.975-.865 5.248-2.594l-25.287-62.61h23.736l12.882 38.439 12.166-38.439h23.258l-23.616 62.256c-2.863 7.546-6.083 12.891-9.661 16.036-3.579 3.144-8.548 4.716-14.91 4.716zm50.689-6.25V68.74h5.964c1.988-5.659 3.419-11.593 4.294-17.803.954-6.21 1.431-14.503 1.431-24.88v-3.065h57.491v45.749h7.514l-2.147 31.01h-19.322V86.78h-33.755l-1.193 12.97h-20.277zm29.103-31.01h17.295V40.797h-13.12v1.062c-.239 9.432-1.63 18.393-4.175 26.883zM632.2 106c-7.156 0-14.074-1.847-20.754-5.542l7.038-15.682c3.816 2.28 7.116 3.42 9.899 3.42 2.227 0 3.976-.865 5.249-2.594l-25.287-62.61h23.736l12.882 38.439 12.166-38.439h23.258l-23.616 62.256c-2.863 7.546-6.083 12.891-9.661 16.036-3.579 3.144-8.548 4.716-14.91 4.716zm141.338-6.25V86.78h-85.759V22.993h22.663v45.749h15.863v-45.75h22.663v45.749h15.863V22.992h22.662v45.749h7.515l-2.147 31.01h-19.323zm27.576-12.97V22.993h21.946v31.954l21.47-31.954h20.873v63.789h-21.947V54.828L821.987 86.78h-20.873zm108.376 1.534c-10.178 0-18.488-3.066-24.928-9.197-6.441-6.132-9.662-14.189-9.662-24.172 0-9.432 3.062-17.332 9.184-23.7 6.123-6.445 13.916-9.668 23.378-9.668 10.576 0 18.647 3.302 24.213 9.905 5.566 6.602 8.349 14.935 8.349 24.996 0 2.044-.039 3.577-.119 4.599h-43.177c1.828 6.996 6.48 10.494 13.955 10.494 5.089 0 9.86-2.162 14.313-6.485l12.523 10.258c-6.917 8.646-16.261 12.97-28.029 12.97zM896.37 49.64h22.423c-.397-3.538-1.59-6.328-3.578-8.372-1.988-2.122-4.532-3.184-7.634-3.184-2.942 0-5.407 1.062-7.394 3.184-1.909 2.044-3.181 4.834-3.817 8.372z" fill="#000"/><path fill-rule="evenodd" clip-rule="evenodd" d="M381.896 48.814c0 26.333 11.491 39.5 34.471 39.5a43.63 43.63 0 003.738-.158c-20.171-1.556-30.257-14.67-30.257-39.342 0-4.166.159-7.939.477-11.319.398-3.38 1.193-6.957 2.386-10.73 1.192-3.851 2.783-7.114 4.771-9.786 2.067-2.751 4.89-5.188 8.468-7.31 3.578-2.123 7.793-3.577 12.643-4.363l25.166-4.056-.197-1.25-32.92 5.306c-4.851.786-9.065 2.24-12.643 4.363-3.579 2.122-6.401 4.559-8.469 7.31-1.988 2.672-3.578 5.935-4.771 9.786-1.193 3.773-1.988 7.35-2.385 10.73-.318 3.38-.478 7.153-.478 11.32zm28.389-20.584c-1.535 1.313-2.582 2.554-3.142 3.723-.716 1.494-1.113 2.948-1.193 4.363 1.193-1.965 3.738-4.009 7.634-6.131 2.996-1.66 6.489-2.693 10.48-3.101a36.933 36.933 0 00-3.88-.2c-3.657 0-6.956.448-9.899 1.346zm10.344 40.504c1.218.398 2.527.596 3.928.596 3.658 0 6.6-1.257 8.826-3.773 2.306-2.515 3.459-5.66 3.459-9.432 0-3.616-1.192-6.721-3.578-9.315-2.385-2.594-5.367-3.891-8.945-3.891-1.451 0-2.795.198-4.033.593 1.897.617 3.573 1.717 5.026 3.298 2.386 2.594 3.579 5.699 3.579 9.315 0 3.773-1.153 6.917-3.459 9.432-1.342 1.516-2.943 2.575-4.803 3.177zM0 86.781V4.245h7.952V86.78H0zm52.839-31.364h7.951v31.364h-7.95V55.417zM60.79 4.245h-7.95v30.892h7.951V4.245zm47.123 83.95c-6.361 0-11.57-1.729-15.625-5.187-4.055-3.537-6.083-8.45-6.083-14.739 0-6.446 2.266-11.398 6.799-14.856 4.532-3.459 10.695-5.188 18.487-5.188 1.396 0 2.763.05 4.101.151-6 .49-10.879 2.169-14.637 5.037-4.532 3.458-6.798 8.41-6.798 14.856 0 6.289 2.027 11.201 6.083 14.739 3.172 2.705 7.05 4.353 11.633 4.942a31.026 31.026 0 01-3.96.246zm18.965-2.19v.776h7.951v-6.603c-2.315 2.552-4.966 4.494-7.951 5.828zm-5.226-63.846a65.258 65.258 0 00-3.839-.11c-9.304 0-18.01 1.65-26.121 4.952l4.651 15.8a54.415 54.415 0 017.28-2.284l-3.98-13.516c6.904-2.81 14.241-4.424 22.009-4.843zm-4.013 17.33c5.92.827 9.031 3.915 9.333 9.266a42.587 42.587 0 017.977 1.946V49.64c0-6.918-4.294-10.376-12.882-10.376-1.468 0-2.944.075-4.428.226zm2.661 34.054a10.296 10.296 0 003.834-2.208c2.068-1.965 3.101-4.52 3.101-7.664v-2.948a20.597 20.597 0 00-4.457-1.29c1.079-.24 2.273-.36 3.583-.36 3.26 0 6.202.55 8.826 1.65v2.948c0 3.144-1.034 5.699-3.101 7.664-2.067 1.886-4.771 2.83-8.111 2.83-1.369 0-2.594-.208-3.675-.622zm40.527-50.55V86.78h7.952V22.992h-7.952zm85.003 0h-7.951V68.74h7.951V22.992zm-38.525 0h-7.952V68.74h7.952V22.992zm65.459 63.788V22.992h7.951v63.789h-7.951zm42.342-20.119v20.119h7.952V54.828l-7.952 11.834zm9.025-43.67h-7.951l-13.518 20.119v11.835l21.469-31.954zM479.612 106c-7.156 0-14.074-1.847-20.753-5.542l7.037-15.682c2.415 1.443 4.623 2.429 6.624 2.959l-5.71 12.723c5.386 2.979 10.928 4.757 16.624 5.334a33.58 33.58 0 01-3.822.208zm32.88-83.008h-7.951l-8.304 26.236 4.089 12.203 12.166-38.439zm-48.783 0l25.286 62.61c-1.272 1.73-3.021 2.594-5.248 2.594-1.396 0-2.922-.287-4.579-.86.711-.423 1.336-1.001 1.876-1.734l-25.287-62.61h7.952zm66.592 45.749v31.01h7.952V68.74h5.964c1.988-5.66 3.419-11.594 4.294-17.804.954-6.21 1.431-14.503 1.431-24.88v-3.065h-7.952v3.066c0 10.376-.477 18.669-1.431 24.879-.875 6.21-2.306 12.144-4.294 17.804h-5.964zm81.463 31.01h1.036l.189-2.73 5.495-12.245c2.415 1.443 4.623 2.429 6.624 2.959l-5.71 12.723c5.386 2.979 10.927 4.757 16.624 5.334a33.593 33.593 0 01-3.822.208c-7.156 0-14.074-1.847-20.754-5.542l.318-.707zm-18.287 0V86.78h-7.951v12.97h7.951zm94.302-75.284V86.78h7.952V22.992h-7.392l-.56 1.475zm-22.699-1.475h-7.951l-8.304 26.236 4.089 12.203 12.166-38.439zm-48.783 0h-7.952l25.287 62.61c-.54.733-1.165 1.31-1.876 1.733 1.656.574 3.183.86 4.579.86 2.227 0 3.976-.864 5.248-2.593l-25.286-62.61zm157.241 63.789v12.97h7.952V86.78h-7.952zm28.172 0h7.355V22.992h-7.951v45.749h1.845l-1.249 18.04zm-28.927-63.789h-7.952v45.749h7.952V22.992zm-38.526 0h-7.952v45.749h7.952V22.992zm96.755 20.119v11.835l21.47-31.954h-7.952l-13.518 20.119zm20.396 43.67V54.828l-7.952 11.834v20.119h7.952zM576.699 40.796v27.945h7.952V40.796h-7.952zm307.863 38.32c6.44 6.132 14.75 9.198 24.928 9.198 1.34 0 2.648-.056 3.926-.168-8.365-.717-15.333-3.727-20.903-9.03-6.441-6.13-9.661-14.188-9.661-24.17 0-9.433 3.061-17.333 9.184-23.7 5.284-5.563 11.812-8.725 19.583-9.487a46.22 46.22 0 00-4.157-.182c-9.462 0-17.255 3.223-23.378 9.669-6.122 6.367-9.184 14.267-9.184 23.7 0 9.982 3.221 18.04 9.662 24.17zm29.935-7.963c1.266.278 2.646.418 4.137.418 3.599 0 7.039-1.081 10.32-3.243l-3.958-3.242c-3.323 3.225-6.823 5.248-10.499 6.067zm-2.853-32.342c1.188-.484 2.484-.727 3.889-.727 3.101 0 5.646 1.062 7.634 3.184 1.988 2.044 3.18 4.834 3.578 8.372h-7.952c-.397-3.538-1.59-6.328-3.578-8.372-1.038-1.109-2.229-1.928-3.571-2.457z" fill="#BC33DC"/><path d="M183.463 199c-6.437 0-11.721-.63-15.854-1.891-4.053-1.339-8.265-3.663-12.636-6.971l8.941-13.944c2.463 1.891 5.602 3.427 9.417 4.608 3.894 1.182 7.192 1.773 9.894 1.773 6.119 0 9.179-1.694 9.179-5.081 0-3.545-2.98-5.318-8.941-5.318h-8.106v-14.061h7.987c5.007 0 7.51-1.812 7.51-5.436 0-1.182-.675-2.206-2.026-3.072-1.351-.867-3.259-1.3-5.722-1.3-2.861 0-5.96.63-9.298 1.891-3.338 1.181-6.04 2.678-8.106 4.49l-9.06-12.289c7.55-6.933 17.325-10.399 29.325-10.399 8.582 0 15.258 1.615 20.026 4.845 4.768 3.23 7.152 7.405 7.152 12.525 0 6.775-3.417 11.62-10.251 14.535 8.026 2.757 12.039 7.72 12.039 14.889 0 6.065-2.622 10.95-7.867 14.652-5.166 3.703-13.033 5.554-23.603 5.554zm60.195-.236c-6.357 0-11.563-1.733-15.616-5.2-4.053-3.545-6.079-8.468-6.079-14.77 0-6.46 2.265-11.423 6.794-14.889 4.53-3.466 10.689-5.2 18.477-5.2 5.643 0 10.808.828 15.497 2.482v-1.064c0-6.932-4.291-10.398-12.874-10.398-5.802 0-11.722 1.182-17.762 3.545l-4.649-15.834c8.106-3.309 16.808-4.963 26.106-4.963 11.126 0 19.311 2.599 24.556 7.799 4.61 4.49 6.914 11.265 6.914 20.324v36.75h-22.41v-6.618c-4.848 5.357-11.166 8.036-18.954 8.036zm8.106-14.062c3.338 0 6.04-.945 8.106-2.836 2.066-1.969 3.099-4.53 3.099-7.681v-2.954c-2.622-1.103-5.563-1.654-8.821-1.654s-5.801.748-7.629 2.245c-1.828 1.418-2.742 3.387-2.742 5.908 0 2.127.716 3.821 2.146 5.081 1.51 1.261 3.457 1.891 5.841 1.891zm44.777 12.644v-63.928h22.649v23.751l17.523-23.751h25.629l-22.052 26.233 22.648 37.695h-24.913l-12.278-20.443-6.557 7.799v12.644h-22.649zm90.303 1.418c-6.358 0-11.563-1.733-15.616-5.2-4.053-3.545-6.08-8.468-6.08-14.77 0-6.46 2.265-11.423 6.795-14.889 4.53-3.466 10.689-5.2 18.477-5.2 5.642 0 10.808.828 15.496 2.482v-1.064c0-6.932-4.291-10.398-12.874-10.398-5.801 0-11.722 1.182-17.761 3.545l-4.649-15.834c8.106-3.309 16.808-4.963 26.106-4.963 11.125 0 19.311 2.599 24.556 7.799 4.609 4.49 6.914 11.265 6.914 20.324v36.75h-22.411v-6.618c-4.847 5.357-11.165 8.036-18.953 8.036zm8.106-14.062c3.337 0 6.039-.945 8.106-2.836 2.066-1.969 3.099-4.53 3.099-7.681v-2.954c-2.623-1.103-5.563-1.654-8.821-1.654-3.259 0-5.802.748-7.629 2.245-1.828 1.418-2.742 3.387-2.742 5.908 0 2.127.715 3.821 2.145 5.081 1.51 1.261 3.457 1.891 5.842 1.891zM462.733 199c-6.437 0-11.722-.63-15.854-1.891-4.053-1.339-8.265-3.663-12.636-6.971l8.941-13.944c2.463 1.891 5.602 3.427 9.417 4.608 3.894 1.182 7.192 1.773 9.894 1.773 6.119 0 9.179-1.694 9.179-5.081 0-3.545-2.98-5.318-8.941-5.318h-8.106v-14.061h7.987c5.007 0 7.51-1.812 7.51-5.436 0-1.182-.675-2.206-2.026-3.072-1.351-.867-3.259-1.3-5.722-1.3-2.861 0-5.961.63-9.298 1.891-3.338 1.181-6.04 2.678-8.106 4.49l-9.06-12.289c7.55-6.933 17.325-10.399 29.325-10.399 8.582 0 15.258 1.615 20.026 4.845 4.768 3.23 7.152 7.405 7.152 12.525 0 6.775-3.417 11.62-10.251 14.535 8.026 2.757 12.039 7.72 12.039 14.889 0 6.065-2.622 10.95-7.867 14.652-5.166 3.703-13.033 5.554-23.603 5.554zm79.983-1.654v-20.561c-4.212 1.89-9.536 2.836-15.973 2.836-6.755 0-12.278-1.891-16.57-5.672-4.212-3.781-6.318-9.02-6.318-15.716v-24.815h22.768v18.079c0 6.539 2.265 9.808 6.795 9.808 3.974 0 7.073-.827 9.298-2.481v-25.406h22.649v63.928h-22.649zm34.841 0v-63.928h21.934v32.023l21.457-32.023h20.861v63.928h-21.934v-32.023l-21.457 32.023h-20.861zm76.366 0v-63.928h22.649v23.751l17.523-23.751h25.629l-22.053 26.233 22.649 37.695h-24.914l-12.278-20.443-6.556 7.799v12.644h-22.649zm71.825 0v-63.928h21.934v32.023l21.457-32.023H790v63.928h-21.934v-32.023l-21.457 32.023h-20.861z" opacity=".4" fill="#D2302F"/><path d="M179.49 199c-6.437 0-11.722-.63-15.854-1.891-4.053-1.339-8.265-3.663-12.636-6.971l8.94-13.944c2.464 1.891 5.603 3.427 9.418 4.608 3.894 1.182 7.192 1.773 9.894 1.773 6.119 0 9.178-1.694 9.178-5.081 0-3.545-2.98-5.318-8.94-5.318h-8.106v-14.061h7.987c5.006 0 7.51-1.812 7.51-5.436 0-1.182-.676-2.206-2.027-3.072-1.351-.867-3.258-1.3-5.722-1.3-2.861 0-5.96.63-9.298 1.891-3.337 1.181-6.039 2.678-8.106 4.49l-9.059-12.289c7.55-6.933 17.324-10.399 29.324-10.399 8.583 0 15.259 1.615 20.027 4.845 4.768 3.23 7.152 7.405 7.152 12.525 0 6.775-3.417 11.62-10.252 14.535 8.027 2.757 12.04 7.72 12.04 14.889 0 6.065-2.622 10.95-7.867 14.652-5.166 3.703-13.033 5.554-23.603 5.554zm60.195-.236c-6.358 0-11.563-1.733-15.616-5.2-4.053-3.545-6.079-8.468-6.079-14.77 0-6.46 2.264-11.423 6.794-14.889 4.53-3.466 10.689-5.2 18.477-5.2 5.642 0 10.808.828 15.497 2.482v-1.064c0-6.932-4.292-10.398-12.875-10.398-5.801 0-11.721 1.182-17.761 3.545l-4.649-15.834c8.106-3.309 16.808-4.963 26.106-4.963 11.126 0 19.311 2.599 24.556 7.799 4.609 4.49 6.914 11.265 6.914 20.324v36.75h-22.411v-6.618c-4.847 5.357-11.165 8.036-18.953 8.036zm8.106-14.062c3.337 0 6.039-.945 8.106-2.836 2.066-1.969 3.099-4.53 3.099-7.681v-2.954c-2.623-1.103-5.563-1.654-8.821-1.654s-5.802.748-7.629 2.245c-1.828 1.418-2.742 3.387-2.742 5.908 0 2.127.715 3.821 2.146 5.081 1.51 1.261 3.457 1.891 5.841 1.891zm44.777 12.644v-63.928h22.649v23.751l17.523-23.751h25.629l-22.053 26.233 22.649 37.695h-24.914l-12.278-20.443-6.556 7.799v12.644h-22.649zm90.302 1.418c-6.357 0-11.563-1.733-15.616-5.2-4.053-3.545-6.079-8.468-6.079-14.77 0-6.46 2.265-11.423 6.795-14.889 4.529-3.466 10.688-5.2 18.476-5.2 5.643 0 10.808.828 15.497 2.482v-1.064c0-6.932-4.291-10.398-12.874-10.398-5.801 0-11.722 1.182-17.762 3.545l-4.649-15.834c8.106-3.309 16.808-4.963 26.106-4.963 11.126 0 19.311 2.599 24.556 7.799 4.61 4.49 6.914 11.265 6.914 20.324v36.75h-22.41v-6.618c-4.848 5.357-11.166 8.036-18.954 8.036zm8.106-14.062c3.338 0 6.04-.945 8.106-2.836 2.066-1.969 3.099-4.53 3.099-7.681v-2.954c-2.622-1.103-5.563-1.654-8.821-1.654s-5.801.748-7.629 2.245c-1.828 1.418-2.742 3.387-2.742 5.908 0 2.127.716 3.821 2.146 5.081 1.51 1.261 3.457 1.891 5.841 1.891zM458.76 199c-6.437 0-11.722-.63-15.854-1.891-4.053-1.339-8.265-3.663-12.636-6.971l8.94-13.944c2.464 1.891 5.603 3.427 9.418 4.608 3.894 1.182 7.192 1.773 9.894 1.773 6.119 0 9.178-1.694 9.178-5.081 0-3.545-2.98-5.318-8.94-5.318h-8.106v-14.061h7.987c5.006 0 7.51-1.812 7.51-5.436 0-1.182-.676-2.206-2.027-3.072-1.351-.867-3.258-1.3-5.722-1.3-2.861 0-5.96.63-9.298 1.891-3.337 1.181-6.039 2.678-8.106 4.49l-9.059-12.289c7.549-6.933 17.324-10.399 29.324-10.399 8.583 0 15.258 1.615 20.027 4.845 4.768 3.23 7.152 7.405 7.152 12.525 0 6.775-3.417 11.62-10.252 14.535 8.027 2.757 12.04 7.72 12.04 14.889 0 6.065-2.622 10.95-7.867 14.652-5.166 3.703-13.034 5.554-23.603 5.554zm79.983-1.654v-20.561c-4.212 1.89-9.537 2.836-15.974 2.836-6.755 0-12.278-1.891-16.569-5.672-4.212-3.781-6.318-9.02-6.318-15.716v-24.815h22.768v18.079c0 6.539 2.265 9.808 6.795 9.808 3.973 0 7.072-.827 9.298-2.481v-25.406h22.649v63.928h-22.649zm34.841 0v-63.928h21.934v32.023l21.457-32.023h20.86v63.928h-21.933v-32.023l-21.457 32.023h-20.861zm76.366 0v-63.928h22.649v23.751l17.523-23.751h25.629l-22.053 26.233 22.649 37.695h-24.914l-12.278-20.443-6.556 7.799v12.644H649.95zm71.825 0v-63.928h21.934v32.023l21.457-32.023h20.861v63.928h-21.934v-32.023l-21.457 32.023h-20.861z" fill="#000"/><path fill-rule="evenodd" clip-rule="evenodd" d="M179.49 199c-6.437 0-11.722-.63-15.854-1.891-4.053-1.339-8.265-3.663-12.636-6.971l8.94-13.944c1.642 1.26 3.584 2.363 5.827 3.308l-6.82 10.636c4.371 3.308 8.583 5.632 12.636 6.972 3.231.985 7.166 1.585 11.806 1.8-1.256.06-2.556.09-3.899.09zm6.54-66.872c-10.231.684-18.702 4.107-25.414 10.271l6.543 8.875c-2.138.976-3.948 2.114-5.431 3.414l-9.059-12.289c7.55-6.933 17.324-10.399 29.324-10.399 1.396 0 2.742.043 4.037.128zm32.344 51.161c.356-1.418.533-2.917.533-4.495 0-1.528-.182-2.955-.547-4.283.811-4.414 2.953-7.95 6.424-10.606 4.53-3.466 10.689-5.2 18.477-5.2 1.396 0 2.762.051 4.1.152-5.997.491-10.874 2.174-14.63 5.048-4.53 3.466-6.794 8.429-6.794 14.889 0 6.302 2.026 11.226 6.079 14.771 3.17 2.711 7.045 4.362 11.625 4.952a30.767 30.767 0 01-3.956.247c-6.358 0-11.563-1.733-15.616-5.2-3.033-2.653-4.931-6.078-5.695-10.275zm40.264 13.28v.777h7.947v-6.617c-2.314 2.557-4.963 4.503-7.947 5.84zm-5.22-63.986a64.397 64.397 0 00-3.839-.11c-9.298 0-18 1.654-26.106 4.963l4.649 15.834a54.106 54.106 0 017.275-2.289l-3.977-13.545c6.901-2.817 14.233-4.435 21.998-4.853zm-4.012 17.369c5.916.828 9.025 3.923 9.327 9.285a42.48 42.48 0 017.972 1.95v-1.063c0-6.933-4.292-10.399-12.875-10.399a43.64 43.64 0 00-4.424.227zm-64.552-.345c-.574-.369-1.25-.659-2.025-.871a22.268 22.268 0 014.25-.429c2.464 0 4.371.433 5.722 1.3 1.351.866 2.027 1.891 2.027 3.072 0 3.624-2.504 5.436-7.51 5.436h-7.987v14.061h-7.947v-14.061h7.987c5.006 0 7.51-1.812 7.51-5.436 0-1.182-.676-2.206-2.027-3.072zm-5.243 22.57c5.879.023 8.819 1.796 8.819 5.317 0 2.52-1.694 4.103-5.081 4.748 1.395.222 2.678.333 3.85.333 6.119 0 9.178-1.694 9.178-5.081 0-3.545-2.98-5.317-8.94-5.317h-7.826zm72.453 11.902a10.291 10.291 0 003.833-2.213c2.066-1.969 3.099-4.53 3.099-7.681v-2.954a20.573 20.573 0 00-4.454-1.292c1.078-.241 2.271-.362 3.58-.362 3.258 0 6.198.551 8.821 1.654v2.954c0 3.152-1.033 5.712-3.099 7.681-2.067 1.891-4.768 2.836-8.106 2.836-1.369 0-2.593-.207-3.674-.623zm40.504-50.661v63.928h7.947v-63.928h14.702-22.649zm30.596 12.98v10.772l17.523-23.752h17.682-25.629l-9.576 12.98zm18.834 50.948l-12.278-20.443-4.635 5.514 8.966 14.929h7.947zm40.872 1.418c-6.357 0-11.563-1.733-15.616-5.2-4.053-3.545-6.079-8.468-6.079-14.77 0-6.46 2.265-11.423 6.795-14.889 4.529-3.466 10.688-5.2 18.476-5.2 1.396 0 2.763.051 4.1.152-5.997.491-10.873 2.174-14.629 5.048-4.53 3.466-6.795 8.429-6.795 14.889 0 6.302 2.026 11.226 6.079 14.771 3.171 2.711 7.046 4.362 11.626 4.952a30.794 30.794 0 01-3.957.247zm18.954-2.195v.777h7.947v-6.617c-2.314 2.557-4.963 4.503-7.947 5.84zm-5.221-63.986a64.397 64.397 0 00-3.839-.11c-9.298 0-18 1.654-26.106 4.963l4.649 15.834a54.196 54.196 0 017.275-2.289l-3.977-13.545c6.901-2.817 14.234-4.435 21.998-4.853zm35.578 58.946v-4.373l7.029-10.962c1.642 1.26 3.584 2.363 5.826 3.308l-6.819 10.636c4.371 3.308 8.583 5.632 12.636 6.972 3.231.985 7.166 1.585 11.806 1.8-1.256.06-2.556.09-3.899.09-6.437 0-11.722-.63-15.854-1.891-3.459-1.143-7.034-3.003-10.725-5.58zm33.119-59.401a61.68 61.68 0 00-4.037-.128c-12 0-21.775 3.466-29.324 10.399l9.059 12.289c1.483-1.3 3.293-2.438 5.431-3.414l-6.543-8.875c6.712-6.164 15.183-9.587 25.414-10.271zm-3.201 16.608c.775.212 1.451.502 2.025.871 1.351.866 2.027 1.89 2.027 3.072 0 3.624-2.504 5.436-7.51 5.436h-7.987v14.061h7.947v-14.061h7.987c5.006 0 7.51-1.812 7.51-5.436 0-1.181-.676-2.206-2.027-3.072-1.351-.867-3.258-1.3-5.722-1.3-1.362 0-2.779.143-4.25.429zm-3.218 23.441c5.879.023 8.819 1.796 8.819 5.317 0 2.52-1.694 4.103-5.081 4.748 1.395.222 2.678.333 3.85.333 6.119 0 9.178-1.694 9.178-5.081 0-3.545-2.98-5.317-8.94-5.317h-7.826zm-66.289-22.225c5.915.828 9.024 3.923 9.327 9.285a42.47 42.47 0 017.971 1.95v-1.063c0-6.933-4.291-10.399-12.874-10.399-1.467 0-2.942.076-4.424.227zm2.658 34.127a10.287 10.287 0 003.832-2.213c2.066-1.969 3.099-4.53 3.099-7.681v-2.954a20.54 20.54 0 00-4.454-1.292c1.078-.241 2.271-.362 3.58-.362 3.259 0 6.199.551 8.821 1.654v2.954c0 3.152-1.033 5.712-3.099 7.681-2.066 1.891-4.768 2.836-8.106 2.836-1.368 0-2.593-.207-3.673-.623zm132.058-4.629c-5.228-.543-9.615-2.376-13.161-5.501-4.212-3.781-6.318-9.02-6.318-15.716v-24.815h14.821-22.768v24.815c0 6.696 2.106 11.935 6.318 15.716 4.291 3.781 9.814 5.672 16.569 5.672 1.58 0 3.093-.057 4.539-.171zm11.435-.405v18.301h7.947v-20.561c-2.314 1.039-4.963 1.792-7.947 2.26zm22.649-45.627h-22.649v25.406c-1.166.866-2.571 1.506-4.217 1.918.825.376 1.78.563 2.866.563 3.973 0 7.073-.827 9.298-2.481v-25.406h14.702zm12.192 0v63.928h7.947v-63.928h13.987-21.934zm29.881 20.163v11.86l21.457-32.023h12.913-20.86l-13.51 20.163zm20.384 43.765v-32.023l-7.947 11.86v20.163h7.947zm26.101 0v-63.928h22.649-14.702v63.928h-7.947zm32.517-14.929l8.966 14.929h7.947l-12.278-20.443-4.635 5.514zm39.308-46.712l1.923-2.287h-1.923 21.934-13.987v63.928h-5.428l-2.519-4.192v-57.449zm42.318 41.478v20.163h7.947v-32.023l-7.947 11.86zm21.934-43.765h-20.861l-13.51 20.163v11.86l21.457-32.023h12.914zm-70.277 0h-17.681l-17.523 23.752v-10.772l9.576-12.98h25.629-.001z" fill="#BC33DC"/></svg>