<svg width="846" height="201" fill="none" xmlns="http://www.w3.org/2000/svg"><path d="M4.076 80.301V0h22.972v32.58L55.586 0h27.236l-31.38 34.53L83.888 80.3H56.297L35.456 50.475l-8.408 9.063V80.3H4.076zm103.55 1.377c-6.315 0-11.486-1.683-15.512-5.048-4.026-3.441-6.04-8.221-6.04-14.34 0-6.27 2.25-11.088 6.75-14.453s10.618-5.048 18.355-5.048c5.605 0 10.736.803 15.394 2.41v-1.033c0-6.73-4.263-10.095-12.789-10.095-5.763 0-11.644 1.147-17.644 3.441L91.522 22.14c8.052-3.212 16.696-4.818 25.933-4.818 11.052 0 19.183 2.524 24.393 7.571 4.579 4.36 6.868 10.937 6.868 19.732V80.3h-22.262v-6.424c-4.815 5.2-11.091 7.8-18.828 7.8zm8.052-13.651c3.316 0 6-.918 8.053-2.754 2.052-1.911 3.079-4.397 3.079-7.456v-2.868c-2.606-1.07-5.527-1.606-8.763-1.606-3.237 0-5.763.726-7.579 2.18-1.815 1.376-2.723 3.288-2.723 5.735 0 2.065.71 3.71 2.131 4.933 1.5 1.224 3.434 1.836 5.802 1.836zm44.481 12.274V18.24h22.499v23.058l17.407-23.058h25.459l-21.906 25.467L226.117 80.3h-24.749l-12.197-19.846-6.513 7.572V80.3h-22.499zm104.192 0V18.24h22.499v22.025h18.473V18.24h22.499V80.3h-22.499V57.817H286.85V80.3h-22.499zm107.248 1.492c-10.105 0-18.354-2.983-24.749-8.948-6.394-5.966-9.591-13.804-9.591-23.517 0-9.177 3.039-16.863 9.118-23.058 6.078-6.271 13.815-9.407 23.209-9.407 10.5 0 18.512 3.212 24.038 9.636 5.526 6.424 8.289 14.531 8.289 24.32 0 1.989-.039 3.48-.118 4.474h-42.866c1.815 6.807 6.434 10.21 13.854 10.21 5.053 0 9.789-2.103 14.21-6.31l12.434 9.98c-6.868 8.413-16.144 12.62-27.828 12.62zm-13.026-37.627h22.263c-.395-3.442-1.579-6.157-3.553-8.145-1.974-2.065-4.5-3.098-7.579-3.098-2.92 0-5.368 1.033-7.341 3.098-1.895 1.988-3.158 4.703-3.79 8.145zm85.829 36.135V18.24h22.499v22.025h18.473V18.24h22.499V80.3h-22.499V57.817h-18.473V80.3h-22.499zM538.862 99c-7.105 0-13.973-1.797-20.604-5.392l6.986-15.257c3.789 2.218 7.065 3.327 9.828 3.327 2.211 0 3.948-.841 5.211-2.524L515.179 18.24h23.564l12.789 37.397 12.079-37.397h23.091l-23.447 60.57c-2.842 7.342-6.039 12.542-9.591 15.601-3.553 3.06-8.487 4.589-14.802 4.589zm48.547-18.699l22.499-36.594-21.907-25.467h25.46l17.407 23.058V18.24h22.499v23.058l17.407-23.058h25.459l-22.025 25.467L696.825 80.3h-24.749l-13.025-21.22-5.684 6.653v14.57h-22.499v-14.57l-5.803-6.653-12.907 21.22h-24.749zm114.871 0V18.24h22.499v22.025h18.472V18.24h22.499V80.3h-22.499V57.817h-18.472V80.3H702.28zm108.195 1.492c-10.105 0-18.512-3.136-25.222-9.407-6.71-6.348-10.066-14.034-10.066-23.058 0-8.948 3.356-16.596 10.066-22.943 6.789-6.348 15.275-9.522 25.459-9.522 10.105 0 18.512 3.174 25.223 9.522C842.645 32.655 846 40.304 846 49.328c0 8.948-3.395 16.596-10.184 22.943-6.71 6.348-15.157 9.522-25.341 9.522zm.237-18.47c4.026 0 7.263-1.338 9.71-4.015 2.447-2.676 3.671-6.003 3.671-9.98 0-3.824-1.303-7.113-3.908-9.866-2.605-2.753-5.842-4.13-9.71-4.13-4.026 0-7.263 1.339-9.71 4.016-2.447 2.676-3.671 6.003-3.671 9.98 0 3.824 1.303 7.112 3.908 9.865 2.605 2.754 5.842 4.13 9.71 4.13z" opacity=".4" fill="#D2302F"/><path d="M0 80.301V0h22.973v32.58L51.51 0h27.235l-31.38 34.53L79.812 80.3h-27.59L31.38 50.475l-8.407 9.063V80.3H0zm103.551 1.377c-6.316 0-11.487-1.683-15.513-5.048C84.012 73.19 82 68.41 82 62.29c0-6.27 2.25-11.088 6.75-14.453s10.618-5.048 18.354-5.048c5.605 0 10.736.803 15.394 2.41v-1.033c0-6.73-4.263-10.095-12.789-10.095-5.763 0-11.644 1.147-17.644 3.441L87.446 22.14c8.052-3.212 16.697-4.818 25.933-4.818 11.052 0 19.183 2.524 24.394 7.571 4.578 4.36 6.868 10.937 6.868 19.732V80.3h-22.262v-6.424c-4.816 5.2-11.092 7.8-18.828 7.8zm8.052-13.651c3.315 0 6-.918 8.052-2.754 2.053-1.911 3.079-4.397 3.079-7.456v-2.868c-2.605-1.07-5.526-1.606-8.763-1.606s-5.763.726-7.578 2.18c-1.816 1.376-2.724 3.288-2.724 5.735 0 2.065.71 3.71 2.131 4.933 1.5 1.224 3.435 1.836 5.803 1.836zm44.481 12.274V18.24h22.498v23.058L195.99 18.24h25.459l-21.907 25.467L222.041 80.3h-24.749l-12.197-19.846-6.513 7.572V80.3h-22.498zm104.191 0V18.24h22.499v22.025h18.473V18.24h22.499V80.3h-22.499V57.817h-18.473V80.3h-22.499zm107.248 1.492c-10.104 0-18.354-2.983-24.748-8.948-6.395-5.966-9.592-13.804-9.592-23.517 0-9.177 3.039-16.863 9.118-23.058 6.079-6.271 13.815-9.407 23.209-9.407 10.5 0 18.513 3.212 24.039 9.636 5.526 6.424 8.289 14.531 8.289 24.32 0 1.989-.04 3.48-.119 4.474h-42.866c1.816 6.807 6.434 10.21 13.855 10.21 5.052 0 9.789-2.103 14.209-6.31l12.434 9.98c-6.868 8.413-16.144 12.62-27.828 12.62zm-13.025-37.627h22.262c-.395-3.442-1.579-6.157-3.553-8.145-1.973-2.065-4.499-3.098-7.578-3.098-2.921 0-5.368 1.033-7.342 3.098-1.895 1.988-3.158 4.703-3.789 8.145zm85.829 36.135V18.24h22.499v22.025h18.472V18.24h22.499V80.3h-22.499V57.817h-18.472V80.3h-22.499zM534.786 99c-7.105 0-13.973-1.797-20.604-5.392l6.986-15.257c3.79 2.218 7.066 3.327 9.829 3.327 2.21 0 3.947-.841 5.21-2.524L511.103 18.24h23.565l12.789 37.397 12.078-37.397h23.091L559.18 78.81c-2.842 7.342-6.039 12.542-9.592 15.601-3.552 3.06-8.486 4.589-14.802 4.589zm48.548-18.699l22.499-36.594-21.907-25.467h25.459l17.407 23.058V18.24h22.499v23.058l17.407-23.058h25.459l-22.025 25.467L692.749 80.3h-24.748l-13.026-21.22-5.684 6.653v14.57h-22.499v-14.57l-5.802-6.653-12.908 21.22h-24.748zm114.87 0V18.24h22.499v22.025h18.473V18.24h22.499V80.3h-22.499V57.817h-18.473V80.3h-22.499zM806.4 81.793c-10.105 0-18.513-3.136-25.223-9.407-6.71-6.348-10.065-14.034-10.065-23.058 0-8.948 3.355-16.596 10.065-22.943 6.789-6.348 15.276-9.522 25.459-9.522 10.105 0 18.513 3.174 25.223 9.522 6.71 6.27 10.065 13.919 10.065 22.943 0 8.948-3.394 16.596-10.184 22.943-6.71 6.348-15.157 9.522-25.34 9.522zm.236-18.47c4.026 0 7.263-1.338 9.71-4.015 2.448-2.676 3.671-6.003 3.671-9.98 0-3.824-1.302-7.113-3.907-9.866-2.606-2.753-5.842-4.13-9.71-4.13-4.027 0-7.263 1.339-9.71 4.016-2.448 2.676-3.671 6.003-3.671 9.98 0 3.824 1.302 7.112 3.907 9.865 2.605 2.754 5.842 4.13 9.71 4.13z" fill="#000"/><path fill-rule="evenodd" clip-rule="evenodd" d="M0 0v80.301h7.894V0H0zm30.867 23.567v9.012L59.405 0h-7.894L30.867 23.567zm29.248 56.734l-20.84-29.826-4.503 4.854L52.222 80.3h7.893zm27.923-3.67c4.026 3.364 9.197 5.047 15.513 5.047 1.355 0 2.665-.08 3.931-.24-4.55-.573-8.4-2.175-11.55-4.808-4.026-3.441-6.039-8.221-6.039-14.34 0-6.27 2.25-11.088 6.75-14.453 3.731-2.79 8.575-4.424 14.531-4.9a55.2 55.2 0 00-4.071-.148c-7.736 0-13.855 1.683-18.354 5.048-4.5 3.365-6.75 8.183-6.75 14.454 0 6.118 2.013 10.898 6.04 14.34zm34.435-33.326a42.986 42.986 0 017.918 1.893v-1.032c0-6.73-4.263-10.095-12.789-10.095-1.457 0-2.922.073-4.395.22 5.876.804 8.965 3.808 9.266 9.014zM99.291 35.29a54.839 54.839 0 00-7.227 2.222L87.446 22.14c8.052-3.212 16.697-4.818 25.933-4.818 1.312 0 2.582.036 3.811.107-7.712.407-14.995 1.977-21.85 4.711l3.951 13.15zm30.982 45.011v-6.424c-2.299 2.483-4.93 4.373-7.894 5.67v.754h7.894zm-14.425-12.879c1.074.403 2.29.605 3.649.605 3.316 0 6-.918 8.052-2.754 2.053-1.911 3.079-4.397 3.079-7.456v-2.868c-2.605-1.07-5.526-1.606-8.763-1.606-1.3 0-2.486.117-3.557.352 1.565.266 3.04.684 4.426 1.254v2.868c0 3.059-1.026 5.544-3.079 7.456a10.281 10.281 0 01-3.807 2.149zm40.236 12.88V18.24h7.894V80.3h-7.894zm32.301-14.494l8.907 14.493h7.894L192.99 60.455l-4.605 5.353zm15.499-47.568h-7.894l-9.513 12.6v10.458l17.407-23.058zm56.391 0V80.3h7.895V18.24h-7.895zm40.972 0v22.025h7.894V18.24h-7.894zm7.894 62.061V57.817h-7.894V80.3h7.894zm58.382 1.492c-10.104 0-18.354-2.983-24.748-8.948-6.395-5.966-9.592-13.804-9.592-23.517 0-9.177 3.039-16.863 9.118-23.058 6.079-6.271 13.815-9.407 23.209-9.407 1.422 0 2.797.06 4.127.177-7.715.741-14.196 3.818-19.442 9.23-6.078 6.195-9.118 13.88-9.118 23.058 0 9.713 3.198 17.551 9.592 23.517 5.53 5.158 12.447 8.087 20.752 8.784a45.46 45.46 0 01-3.898.164zm19.324-19.445l-3.93-3.154c-3.298 3.138-6.773 5.106-10.423 5.902 1.258.271 2.627.407 4.108.407 3.573 0 6.988-1.052 10.245-3.155zM376.76 44.166c-.395-3.442-1.579-6.157-3.553-8.145-1.031-1.079-2.212-1.876-3.545-2.39 1.179-.472 2.466-.708 3.861-.708 3.079 0 5.605 1.033 7.579 3.098 1.973 1.988 3.157 4.703 3.552 8.145h-7.894zm63.567-25.926V80.3h7.894V18.24h-7.894zm40.971 0v22.025h7.895V18.24h-7.895zm7.895 62.061V57.817h-7.895V80.3h7.895zm22.499-60.633V18.24h7.305l25.104 60.914c-1.263 1.683-2.999 2.524-5.21 2.524-1.386 0-2.901-.28-4.546-.837a6.266 6.266 0 001.862-1.687l-24.515-59.486zm16.053 61.561c-1.987-.515-4.179-1.475-6.577-2.878l-6.986 15.257C520.813 97.203 527.681 99 534.786 99c1.326 0 2.59-.067 3.794-.202-5.655-.561-11.157-2.291-16.504-5.19l5.669-12.379zm60.729-57.702l17.359 20.18L583.334 80.3h7.894l22.499-36.594L591.82 18.24h-1.3l-2.046 5.287zm-21.045-5.287h-7.894l-8.244 25.525 4.06 11.872 12.078-37.397zm59.363 12.6l7.894 10.458V18.24h-7.894v12.6zm30.393 0v10.458l17.407-23.058h-7.894l-9.513 12.6zm41.019 45.514V20.376l1.848-2.136h6.046V80.3h-5.454l-2.44-3.947zM675.895 80.3l-13.026-21.22-4.594 5.377 9.726 15.845h7.894zm-41.209 0V65.732l-5.802-6.653-3.243 5.333 1.151 1.32v14.57h7.894zm104.49-22.484V80.3h7.894V57.817h-7.894zm7.894-39.577h-7.894v22.025h7.894V18.24zm34.107 54.146c6.71 6.271 15.118 9.407 25.223 9.407 1.347 0 2.663-.056 3.95-.167-8.369-.724-15.461-3.804-21.279-9.24-6.71-6.348-10.065-14.034-10.065-23.058 0-8.948 3.355-16.596 10.065-22.943 5.889-5.506 13.054-8.624 21.497-9.354a45.244 45.244 0 00-3.932-.168c-10.183 0-18.67 3.174-25.459 9.522-6.71 6.347-10.065 13.995-10.065 22.943 0 9.024 3.355 16.71 10.065 23.058zm29.487-9.58a14.07 14.07 0 003.867.517c4.026 0 7.263-1.338 9.71-4.015 2.447-2.676 3.671-6.003 3.671-9.98 0-3.824-1.303-7.113-3.908-9.866-2.605-2.753-5.842-4.13-9.71-4.13-1.444 0-2.787.173-4.027.517 2.211.63 4.159 1.834 5.843 3.613 2.605 2.753 3.907 6.042 3.907 9.866 0 3.977-1.223 7.303-3.671 9.98-1.569 1.717-3.463 2.883-5.682 3.499z" fill="#BC33DC"/><path d="M214.071 201v-30.148h5.913c1.971-5.502 3.391-11.272 4.258-17.309.946-6.037 1.419-14.1 1.419-24.187v-2.98h57.007v44.476h7.451L287.99 201h-19.16v-12.609h-33.471L234.177 201h-20.106zm28.858-30.148h17.149v-27.167h-13.01v1.031c-.236 9.171-1.616 17.883-4.139 26.136zm84.956 19.029c-10.092 0-18.332-2.981-24.718-8.941-6.387-5.961-9.58-13.794-9.58-23.5 0-9.17 3.035-16.85 9.106-23.04 6.072-6.267 13.799-9.4 23.182-9.4 10.486 0 18.489 3.21 24.009 9.629 5.519 6.419 8.279 14.52 8.279 24.302 0 1.987-.04 3.477-.119 4.47H315.23c1.814 6.802 6.426 10.202 13.838 10.202 5.046 0 9.777-2.101 14.192-6.304l12.419 9.972c-6.86 8.407-16.124 12.61-27.794 12.61zm-13.01-37.599h22.235c-.394-3.439-1.577-6.152-3.548-8.139-1.971-2.063-4.494-3.095-7.569-3.095-2.918 0-5.362 1.032-7.333 3.095-1.892 1.987-3.154 4.7-3.785 8.139zm65.814 35.994c-2.207.611-4.809.917-7.805.917-2.997 0-6.308-.306-9.935-.917l.946-16.851c1.656.23 2.878.344 3.666.344 1.025 0 1.853-.114 2.484-.344.631-.305 1.34-1.07 2.129-2.292.867-1.223 1.537-2.981 2.011-5.273.473-2.293.867-5.579 1.182-9.859.395-4.355.592-9.59.592-15.704v-11.921h55.232v62.015H408.72v-44.706h-11.827v1.605c0 7.336-.434 13.679-1.302 19.028-.788 5.273-1.852 9.515-3.193 12.724-1.34 3.133-3.075 5.655-5.204 7.566-2.128 1.834-4.297 3.057-6.505 3.668zm80.862 1.49c-6.308 0-11.473-1.681-15.494-5.044-4.021-3.438-6.032-8.215-6.032-14.328 0-6.267 2.247-11.081 6.742-14.444 4.494-3.362 10.605-5.044 18.332-5.044 5.598 0 10.723.803 15.375 2.408v-1.032c0-6.725-4.258-10.087-12.773-10.087-5.756 0-11.63 1.146-17.623 3.438l-4.612-15.36c8.042-3.21 16.676-4.814 25.901-4.814 11.039 0 19.16 2.521 24.364 7.565 4.573 4.356 6.86 10.928 6.86 19.717v35.65h-22.235v-6.42c-4.81 5.197-11.078 7.795-18.805 7.795zm8.042-13.641c3.312 0 5.992-.917 8.042-2.751 2.051-1.91 3.076-4.394 3.076-7.451v-2.866c-2.602-1.07-5.52-1.605-8.753-1.605-3.232 0-5.755.726-7.569 2.178-1.813 1.376-2.72 3.287-2.72 5.732 0 2.063.709 3.706 2.129 4.929 1.498 1.223 3.43 1.834 5.795 1.834zm58.264 12.266v-44.477H509.17v-17.538h59.845v17.538h-18.687v44.477h-22.471zm48.416 0v-62.015h22.472v19.487h10.881c7.884 0 14.232 1.834 19.041 5.502 4.889 3.592 7.333 8.788 7.333 15.59 0 6.648-2.286 11.883-6.86 15.704-4.573 3.821-10.762 5.732-18.568 5.732h-34.299zm22.472-15.361h6.978c5.756 0 8.633-2.254 8.633-6.763 0-1.987-.788-3.554-2.365-4.7-1.498-1.146-3.588-1.719-6.268-1.719h-6.978v13.182z" opacity=".4" fill="#D2302F"/><path d="M210 201v-30.148h5.914c1.971-5.502 3.39-11.272 4.257-17.309.946-6.037 1.419-14.1 1.419-24.187v-2.98h57.007v44.476h7.451L283.919 201h-19.16v-12.609h-33.47L230.106 201H210zm28.858-30.148h17.149v-27.167h-13.009v1.031c-.237 9.171-1.617 17.883-4.14 26.136zm84.956 19.029c-10.092 0-18.332-2.981-24.718-8.941-6.387-5.961-9.58-13.794-9.58-23.5 0-9.17 3.035-16.85 9.107-23.04 6.071-6.267 13.798-9.4 23.181-9.4 10.486 0 18.489 3.21 24.009 9.629 5.519 6.419 8.279 14.52 8.279 24.302 0 1.987-.04 3.477-.118 4.47h-42.815c1.814 6.802 6.426 10.202 13.838 10.202 5.046 0 9.777-2.101 14.193-6.304l12.418 9.972c-6.86 8.407-16.124 12.61-27.794 12.61zm-13.009-37.599h22.234c-.394-3.439-1.576-6.152-3.548-8.139-1.971-2.063-4.494-3.095-7.569-3.095-2.917 0-5.362 1.032-7.333 3.095-1.892 1.987-3.154 4.7-3.784 8.139zm65.814 35.994c-2.208.611-4.81.917-7.806.917-2.996 0-6.308-.306-9.935-.917l.946-16.851c1.656.23 2.878.344 3.667.344 1.025 0 1.852-.114 2.483-.344.631-.305 1.341-1.07 2.129-2.292.867-1.223 1.538-2.981 2.011-5.273.473-2.293.867-5.579 1.182-9.859.395-4.355.592-9.59.592-15.704v-11.921h55.232v62.015h-22.471v-44.706h-11.827v1.605c0 7.336-.434 13.679-1.301 19.028-.789 5.273-1.853 9.515-3.194 12.724-1.34 3.133-3.075 5.655-5.203 7.566-2.129 1.834-4.298 3.057-6.505 3.668zm80.861 1.49c-6.308 0-11.472-1.681-15.494-5.044-4.021-3.438-6.031-8.215-6.031-14.328 0-6.267 2.247-11.081 6.741-14.444 4.494-3.362 10.605-5.044 18.332-5.044 5.598 0 10.723.803 15.375 2.408v-1.032c0-6.725-4.258-10.087-12.773-10.087-5.756 0-11.63 1.146-17.623 3.438l-4.612-15.36c8.042-3.21 16.676-4.814 25.901-4.814 11.039 0 19.16 2.521 24.364 7.565 4.573 4.356 6.86 10.928 6.86 19.717v35.65h-22.235v-6.42c-4.81 5.197-11.078 7.795-18.805 7.795zm8.042-13.641c3.312 0 5.993-.917 8.043-2.751 2.05-1.91 3.075-4.394 3.075-7.451v-2.866c-2.602-1.07-5.52-1.605-8.752-1.605-3.233 0-5.756.726-7.57 2.178-1.813 1.376-2.72 3.287-2.72 5.732 0 2.063.71 3.706 2.129 4.929 1.498 1.223 3.43 1.834 5.795 1.834zm58.264 12.266v-44.477h-18.687v-17.538h59.846v17.538h-18.687v44.477h-22.472zm48.416 0v-62.015h22.472v19.487h10.881c7.885 0 14.232 1.834 19.041 5.502 4.889 3.592 7.333 8.788 7.333 15.59 0 6.648-2.286 11.883-6.859 15.704-4.574 3.821-10.763 5.732-18.569 5.732h-34.299zm22.472-15.361h6.978c5.756 0 8.634-2.254 8.634-6.763 0-1.987-.789-3.554-2.366-4.7-1.498-1.146-3.587-1.719-6.268-1.719h-6.978v13.182z" fill="#000"/><path fill-rule="evenodd" clip-rule="evenodd" d="M299.096 180.94c6.386 5.96 14.626 8.941 24.718 8.941 1.329 0 2.627-.055 3.893-.164-8.295-.697-15.203-3.623-20.727-8.777-6.386-5.961-9.579-13.794-9.579-23.5 0-9.17 3.035-16.85 9.106-23.04 5.24-5.408 11.713-8.483 19.418-9.224a46.967 46.967 0 00-4.121-.176c-9.383 0-17.11 3.133-23.181 9.4-6.072 6.19-9.107 13.87-9.107 23.04 0 4.96.834 9.43 2.501 13.412h1.916l-.238 3.369c1.432 2.455 3.232 4.695 5.401 6.719zm-69.621-54.564h-7.885v2.98c0 10.087-.473 18.15-1.419 24.187-.867 6.037-2.286 11.807-4.257 17.309H210V201h7.885v-30.148h5.913c1.971-5.502 3.391-11.272 4.258-17.309.946-6.037 1.419-14.1 1.419-24.187v-2.98zM272.644 201v-12.609h-7.885V201h7.885zm56.135-27.803c1.256.271 2.624.406 4.103.406 3.568 0 6.979-1.051 10.232-3.153l-3.924-3.151c-3.295 3.136-6.765 5.102-10.411 5.898zm-2.829-31.443c1.178-.47 2.463-.706 3.857-.706 3.075 0 5.598 1.032 7.569 3.095 1.971 1.987 3.154 4.7 3.548 8.139h-7.885c-.394-3.439-1.576-6.152-3.548-8.139a9.687 9.687 0 00-3.541-2.389zm-69.943 1.931v27.167h7.885v-27.167h-7.885zm116.541 45.33a36.923 36.923 0 01-3.735.178c-2.996 0-6.308-.306-9.935-.917l.946-16.851c1.656.23 2.878.344 3.667.344 1.025 0 1.852-.114 2.483-.344.631-.305 1.341-1.07 2.129-2.292.867-1.223 1.538-2.981 2.011-5.273.473-2.293.867-5.579 1.182-9.859.395-4.355.592-9.59.592-15.704v-11.921h7.885v11.921c0 6.114-.198 11.349-.592 15.704-.315 4.28-.71 7.566-1.183 9.859-.473 2.292-1.143 4.05-2.01 5.273-.789 1.222-1.498 1.987-2.129 2.292-.631.23-1.459.344-2.484.344-.788 0-2.01-.114-3.666-.344l-.946 16.851c2.027.342 3.955.588 5.785.739zm32.101-45.33v44.706h7.884v-44.706h-7.884zm37.337 41.037c4.022 3.363 9.186 5.044 15.494 5.044 1.353 0 2.662-.08 3.926-.239-4.544-.573-8.389-2.174-11.535-4.805-4.021-3.438-6.032-8.215-6.032-14.328 0-6.267 2.247-11.081 6.742-14.444 3.726-2.788 8.564-4.42 14.513-4.896a55.17 55.17 0 00-4.066-.148c-7.727 0-13.838 1.682-18.332 5.044-4.494 3.363-6.741 8.177-6.741 14.444 0 6.113 2.01 10.89 6.031 14.328zm34.393-33.3a42.91 42.91 0 017.909 1.892v-1.032c0-6.725-4.258-10.087-12.773-10.087-1.456 0-2.92.073-4.391.22 5.87.803 8.955 3.805 9.255 9.007zm-23.154-8.009a54.887 54.887 0 00-7.218 2.22l-4.612-15.36c8.042-3.21 16.676-4.814 25.901-4.814 1.31 0 2.579.035 3.807.106-7.703.407-14.977 1.976-21.823 4.708l3.945 13.14zm52.245.501a27.823 27.823 0 00-.371-1.408v-16.13h7.885v17.538h-7.514zm-21.3 44.477v-6.42c-2.296 2.481-4.924 4.369-7.885 5.666v.754h7.885zm39.616-44.477v44.477h7.885v-44.477h-7.885zm48.416 0v44.477h7.885v-62.015h-7.258v17.538h-.627zm-102.44 31.607c1.072.403 2.287.604 3.645.604 3.312 0 5.992-.917 8.042-2.751 2.05-1.91 3.075-4.394 3.075-7.451v-2.866c-2.602-1.07-5.519-1.605-8.752-1.605-1.298 0-2.483.118-3.552.352 1.562.266 3.036.684 4.42 1.253v2.866c0 3.057-1.025 5.541-3.075 7.451a10.27 10.27 0 01-3.803 2.147zm132.797-2.511c5.151-.23 7.727-2.478 7.727-6.743 0-1.987-.789-3.554-2.366-4.7-1.325-1.014-3.112-1.579-5.361-1.696v-.023h6.978c2.68 0 4.77.573 6.268 1.719 1.577 1.146 2.365 2.713 2.365 4.7 0 4.509-2.878 6.763-8.633 6.763h-6.978v-.02z" fill="#BC33DC"/></svg>