<svg width="1440" height="160" fill="none" xmlns="http://www.w3.org/2000/svg"><path fill="url(#paint0_linear)" d="M0 0h1440v160H0z"/><path d="M247.848 14.71c0 4.184-6.151 4.785-7.177 4.785-21.977 0-19.937 19.546-19.937 29.506 6.868 0 22.605-.856 28.099.539 6.868 1.743 8.012 7.554 8.585 10.46v38.35c0 5.579-4.785 9.663-8.585 10.46h-36.056c-5.494 0-11.81-5.582-12.019-10.46-.572-13.365-1.373-45.673 0-67.987C202.475 2.472 242.022-1.388 245.456.356c3.434 1.743 2.392 9.124 2.392 14.354zm68.582.356c0 4.183-6.151 4.784-7.177 4.784-21.977 0-19.937 19.547-19.937 29.507 6.868 0 22.605-.856 28.099.538 6.868 1.744 8.013 7.554 8.585 10.46v38.352c0 5.578-4.785 9.662-8.585 10.46h-36.056c-5.494 0-11.809-5.583-12.018-10.46-.573-13.365-1.374-45.674 0-67.988C271.058 2.827 310.604-1.032 314.038.711c3.434 1.743 2.392 9.125 2.392 14.354zm875.72 130.246c0-4.177 6.15-4.777 7.18-4.777 21.98 0 19.94-19.517 19.94-29.461-6.87 0-22.61.854-28.1-.538-6.87-1.741-8.02-7.543-8.59-10.444V61.799c0-5.57 4.79-9.648 8.59-10.444h36.05c5.5 0 11.81 5.574 12.02 10.444.57 13.344 1.38 45.604 0 67.883-1.72 27.85-41.26 31.704-44.7 29.963-3.43-1.741-2.39-9.111-2.39-14.333zm-68.58-.355c0-4.178 6.15-4.778 7.18-4.778 21.97 0 19.93-19.516 19.93-29.461-6.86 0-22.6.855-28.1-.538-6.86-1.74-8.01-7.542-8.58-10.443V61.443c0-5.57 4.78-9.648 8.58-10.444h36.06c5.5 0 11.81 5.574 12.02 10.444.57 13.345 1.37 45.604 0 67.884-1.72 27.85-41.26 31.703-44.7 29.962-3.43-1.74-2.39-9.11-2.39-14.332z" opacity=".3" fill="#fff"/><defs><linearGradient id="paint0_linear" x1="-19.264" y1="80.004" x2="1440" y2="80.004" gradientUnits="userSpaceOnUse"><stop stop-color="#D2302F"/><stop offset="1" stop-color="#BC33DC"/></linearGradient></defs></svg>