<svg width="22" height="22" fill="none" xmlns="http://www.w3.org/2000/svg"><g filter="url(#filter0_d)"><path d="M20.94 5.877c-.049-1.064-.218-1.791-.465-2.427a4.901 4.901 0 00-1.153-1.772A4.903 4.903 0 0017.55.525C16.914.278 16.187.109 15.123.06 14.057.012 13.716 0 11 0S7.944.012 6.877.06C5.813.11 5.086.278 4.45.525a4.901 4.901 0 00-1.772 1.153A4.902 4.902 0 001.525 3.45c-.247.636-.416 1.363-.465 2.427C1.012 6.944 1 7.284 1 10s.012 3.057.06 4.123c.049 1.064.218 1.791.465 2.427a4.9 4.9 0 001.154 1.771c.5.51 1.104.903 1.77 1.154.637.247 1.364.416 2.428.465 1.067.049 1.407.06 4.123.06s3.057-.011 4.123-.06c1.065-.049 1.791-.218 2.428-.465a5.112 5.112 0 002.924-2.925c.247-.636.416-1.363.465-2.427.049-1.067.06-1.407.06-4.123s-.011-3.056-.06-4.123zm-1.8 8.164c-.044.975-.207 1.505-.344 1.857a3.312 3.312 0 01-1.898 1.898c-.352.137-.882.3-1.857.344-1.054.048-1.37.058-4.04.058-2.671 0-2.988-.01-4.042-.058-.975-.044-1.504-.207-1.857-.344a3.1 3.1 0 01-1.15-.748 3.098 3.098 0 01-.748-1.15c-.137-.352-.3-.882-.344-1.857-.048-1.054-.058-1.37-.058-4.04 0-2.671.01-2.987.058-4.042.045-.975.207-1.504.344-1.857a3.1 3.1 0 01.748-1.15 3.096 3.096 0 011.15-.748c.353-.137.882-.3 1.857-.344 1.055-.048 1.37-.058 4.041-.058 2.67 0 2.986.01 4.04.058.976.045 1.505.208 1.858.344a3.1 3.1 0 011.15.748c.332.323.587.716.748 1.15.137.353.3.882.344 1.857.048 1.055.058 1.37.058 4.041 0 2.67-.01 2.986-.058 4.041z" fill="url(#paint0_linear)"/><path d="M11 4.865a5.135 5.135 0 100 10.27 5.135 5.135 0 000-10.27zm0 8.468a3.333 3.333 0 110-6.666 3.333 3.333 0 010 6.666z" fill="url(#paint1_linear)"/><path d="M17.538 4.662a1.2 1.2 0 11-2.4 0 1.2 1.2 0 012.4 0z" fill="url(#paint2_linear)"/></g><defs><linearGradient id="paint0_linear" x1="3" y1="1.333" x2="16.333" y2="19.334" gradientUnits="userSpaceOnUse"><stop stop-color="#D2302F"/><stop offset="1" stop-color="#BC33DC"/></linearGradient><linearGradient id="paint1_linear" x1="7.667" y1="6.667" x2="11" y2="15.135" gradientUnits="userSpaceOnUse"><stop stop-color="#D2302F"/><stop offset="1" stop-color="#BC33DC"/></linearGradient><linearGradient id="paint2_linear" x1="15" y1="3.333" x2="17" y2="5.333" gradientUnits="userSpaceOnUse"><stop stop-color="#D2302F"/><stop offset="1" stop-color="#BC33DC"/></linearGradient><filter id="filter0_d" x="0" y="0" width="22" height="22" filterUnits="userSpaceOnUse" color-interpolation-filters="sRGB"><feFlood flood-opacity="0" result="BackgroundImageFix"/><feColorMatrix in="SourceAlpha" values="0 0 0 0 0 0 0 0 0 0 0 0 0 0 0 0 0 0 127 0"/><feOffset dy="1"/><feGaussianBlur stdDeviation=".5"/><feColorMatrix values="0 0 0 0 0 0 0 0 0 0 0 0 0 0 0 0 0 0 0.25 0"/><feBlend in2="BackgroundImageFix" result="effect1_dropShadow"/><feBlend in="SourceGraphic" in2="effect1_dropShadow" result="shape"/></filter></defs></svg>