<svg width="1440" height="162" fill="none" xmlns="http://www.w3.org/2000/svg"><path fill="url(#paint0_linear)" d="M0 2h1440v160H0z"/><path d="M371.074 52.458c1.584 0 2.882.388 3.894 1.166 1.012.777 1.518 1.767 1.518 2.97 0 1.657-.872 2.852-2.618 3.586.924.278 1.658.726 2.2 1.342.543.616.814 1.4.814 2.354 0 1.305-.52 2.383-1.562 3.234-1.041.85-2.405 1.276-4.092 1.276-1.452 0-2.706-.206-3.762-.616-1.041-.426-2.009-1.064-2.904-1.914l1.474-1.87c1.438 1.364 3.146 2.046 5.126 2.046.851 0 1.562-.206 2.134-.616.587-.426.88-.99.88-1.694 0-.763-.322-1.328-.968-1.694-.645-.367-1.496-.55-2.552-.55h-1.738v-2.244h1.716c.998 0 1.775-.191 2.332-.572.558-.396.836-.954.836-1.672 0-.646-.271-1.166-.814-1.562-.528-.396-1.224-.594-2.09-.594-1.686 0-3.124.572-4.312 1.716l-1.452-1.76c1.628-1.555 3.608-2.332 5.94-2.332zm18.425 15.664h-2.64v-1.43c-.939 1.114-2.193 1.672-3.762 1.672-1.159 0-2.141-.316-2.948-.946-.792-.646-1.188-1.54-1.188-2.684 0-1.247.433-2.193 1.298-2.838.865-.646 2.002-.968 3.41-.968 1.129 0 2.2.161 3.212.484v-.22c0-.807-.249-1.423-.748-1.848-.484-.426-1.188-.638-2.112-.638-1.056 0-2.163.242-3.322.726l-.726-2.134a10.69 10.69 0 014.422-.968c1.687 0 2.955.425 3.806 1.276.865.85 1.298 2.06 1.298 3.63v6.886zm-2.574-4.202v-.66c-.792-.308-1.679-.462-2.662-.462-.836 0-1.489.161-1.958.484-.469.322-.704.777-.704 1.364 0 .528.213.946.638 1.254.425.308.961.462 1.606.462.895 0 1.628-.228 2.2-.682.587-.455.88-1.042.88-1.76zm17.704 4.466c-1.716 0-3.146-.58-4.29-1.738-1.144-1.174-1.716-2.596-1.716-4.268v-.044c0-1.672.572-3.102 1.716-4.29 1.159-1.188 2.596-1.782 4.312-1.782 1.877 0 3.425.667 4.642 2.002l-1.65 1.782c-.924-.968-1.929-1.452-3.014-1.452-.953 0-1.753.359-2.398 1.078-.631.718-.946 1.591-.946 2.618v.044c0 1.056.323 1.943.968 2.662.66.718 1.496 1.078 2.508 1.078 1.071 0 2.075-.484 3.014-1.452l1.606 1.584c-.631.704-1.32 1.246-2.068 1.628-.733.366-1.628.55-2.684.55zm7.093-.264V56.506h5.962c1.158 0 2.082.264 2.772.792.704.513 1.056 1.217 1.056 2.112 0 1.217-.624 2.104-1.87 2.662 1.598.454 2.398 1.422 2.398 2.904 0 .982-.389 1.752-1.166 2.31-.763.557-1.804.836-3.124.836h-6.028zm2.618-2.112h3.014c.63 0 1.114-.132 1.452-.396.352-.279.528-.646.528-1.1 0-.44-.184-.785-.55-1.034-.352-.25-.873-.374-1.562-.374h-2.882v2.904zm0-4.708h2.728c.542 0 .968-.132 1.276-.396.308-.264.462-.609.462-1.034 0-.396-.14-.712-.418-.946-.279-.25-.704-.374-1.276-.374h-2.772v2.75zm15.88 7.084c-1.76 0-3.226-.587-4.4-1.76-1.173-1.174-1.76-2.604-1.76-4.29 0-1.687.594-3.117 1.782-4.29 1.188-1.188 2.662-1.782 4.422-1.782 1.76 0 3.227.586 4.4 1.76 1.188 1.173 1.782 2.61 1.782 4.312 0 1.672-.594 3.102-1.782 4.29-1.188 1.173-2.669 1.76-4.444 1.76zm.044-2.31c1.056 0 1.907-.36 2.552-1.078.646-.719.968-1.606.968-2.662 0-1.042-.337-1.922-1.012-2.64-.674-.734-1.525-1.1-2.552-1.1-1.041 0-1.884.359-2.53 1.078-.645.718-.968 1.606-.968 2.662 0 1.026.338 1.906 1.012 2.64.675.733 1.518 1.1 2.53 1.1zm19.211 2.31c-1.525 0-2.801-.462-3.828-1.386-1.012-.939-1.628-2.134-1.848-3.586h-2.002v4.708h-2.64V56.506h2.64v4.708h2.002c.235-1.423.866-2.596 1.892-3.52 1.042-.939 2.318-1.408 3.828-1.408 1.716 0 3.11.579 4.18 1.738 1.071 1.158 1.606 2.596 1.606 4.312 0 1.686-.542 3.116-1.628 4.29-1.085 1.173-2.486 1.76-4.202 1.76zm.044-2.31c.998 0 1.768-.352 2.31-1.056.558-.719.836-1.614.836-2.684 0-1.056-.293-1.944-.88-2.662-.572-.719-1.342-1.078-2.31-1.078-.997 0-1.767.352-2.31 1.056-.542.704-.814 1.598-.814 2.684 0 1.056.286 1.943.858 2.662.572.718 1.342 1.078 2.31 1.078zm17.473 5.632a5.687 5.687 0 01-2.75-.704l.902-1.98c.543.293 1.064.44 1.562.44.382 0 .697-.103.946-.308.25-.191.484-.536.704-1.034l-4.84-11.616h2.838l3.3 8.624 3.014-8.624h2.772l-4.62 11.946c-.469 1.188-.99 2.024-1.562 2.508-.572.498-1.327.748-2.266.748zm10.642-3.454c-.426 0-.946-.052-1.562-.154l.198-2.178c.234.058.491.088.77.088.308 0 .557-.044.748-.132.205-.088.41-.308.616-.66.22-.367.388-.88.506-1.54.117-.66.212-1.584.286-2.772.073-1.203.11-2.67.11-4.4h8.778v11.616h-2.662v-9.328h-3.63c0 1.657-.066 3.065-.198 4.224-.132 1.158-.308 2.075-.528 2.75-.206.674-.499 1.202-.88 1.584-.367.366-.741.608-1.122.726-.382.117-.858.176-1.43.176zm19.581-13.222v-2.596h2.706v2.596h-2.706zm-4.378 0v-2.596h2.706v2.596h-2.706zm3.916 13.354c-1.701 0-3.124-.565-4.268-1.694-1.129-1.13-1.694-2.589-1.694-4.378 0-1.687.535-3.117 1.606-4.29 1.071-1.174 2.427-1.76 4.07-1.76 1.76 0 3.124.601 4.092 1.804.983 1.188 1.474 2.669 1.474 4.444 0 .322-.015.572-.044.748h-8.536c.147.924.521 1.65 1.122 2.178.601.513 1.342.77 2.222.77 1.144 0 2.193-.462 3.146-1.386l1.562 1.386c-1.203 1.452-2.787 2.178-4.752 2.178zm-3.322-6.886h5.962c-.088-.895-.389-1.628-.902-2.2-.513-.572-1.195-.858-2.046-.858-.807 0-1.481.286-2.024.858-.543.557-.873 1.29-.99 2.2zm13.761 6.622v-9.328h-3.74v-2.288h10.164v2.288h-3.74v9.328h-2.684zm8.536 0V56.506h2.662v4.708h5.126v-4.708h2.662v11.616h-2.662v-4.686h-5.126v4.686h-2.662zm19.315.264c-1.76 0-3.227-.587-4.4-1.76-1.174-1.174-1.76-2.604-1.76-4.29 0-1.687.594-3.117 1.782-4.29 1.188-1.188 2.662-1.782 4.422-1.782 1.76 0 3.226.586 4.4 1.76 1.188 1.173 1.782 2.61 1.782 4.312 0 1.672-.594 3.102-1.782 4.29-1.188 1.173-2.67 1.76-4.444 1.76zm.044-2.31c1.056 0 1.906-.36 2.552-1.078.645-.719.968-1.606.968-2.662 0-1.042-.338-1.922-1.012-2.64-.675-.734-1.526-1.1-2.552-1.1-1.042 0-1.885.359-2.53 1.078-.646.718-.968 1.606-.968 2.662 0 1.026.337 1.906 1.012 2.64.674.733 1.518 1.1 2.53 1.1zm14.261 2.31c-1.716 0-3.146-.58-4.29-1.738-1.144-1.174-1.716-2.596-1.716-4.268v-.044c0-1.672.572-3.102 1.716-4.29 1.158-1.188 2.596-1.782 4.312-1.782 1.877 0 3.424.667 4.642 2.002l-1.65 1.782c-.924-.968-1.929-1.452-3.014-1.452-.954 0-1.753.359-2.398 1.078-.631.718-.946 1.591-.946 2.618v.044c0 1.056.322 1.943.968 2.662.66.718 1.496 1.078 2.508 1.078 1.07 0 2.075-.484 3.014-1.452l1.606 1.584c-.631.704-1.32 1.246-2.068 1.628-.734.366-1.628.55-2.684.55zm9.579-.264v-9.328h-3.74v-2.288h10.164v2.288h-3.74v9.328h-2.684zm8.535 0V56.506h2.662v4.07h2.662c1.379 0 2.493.308 3.344.924.851.616 1.276 1.532 1.276 2.75 0 1.202-.396 2.148-1.188 2.838-.792.689-1.87 1.034-3.234 1.034h-5.522zm2.662-2.156h2.508c.675 0 1.195-.147 1.562-.44.367-.294.55-.719.55-1.276 0-.514-.191-.91-.572-1.188-.367-.279-.895-.418-1.584-.418h-2.464v3.322zm14.859 4.95v-5.082h1.254c.866-1.731 1.298-4.364 1.298-7.898v-1.43h8.998v9.328h1.65l-.352 5.082h-2.222v-2.794h-8.14l-.264 2.794h-2.222zm3.982-5.082h4.906v-7.04h-3.828v1.54c0 2.156-.359 3.989-1.078 5.5zm16.757 2.552c-1.702 0-3.124-.565-4.268-1.694-1.13-1.13-1.694-2.589-1.694-4.378 0-1.687.535-3.117 1.606-4.29 1.07-1.174 2.427-1.76 4.07-1.76 1.76 0 3.124.601 4.092 1.804.982 1.188 1.474 2.669 1.474 4.444 0 .322-.015.572-.044.748h-8.536c.146.924.52 1.65 1.122 2.178.601.513 1.342.77 2.222.77 1.144 0 2.192-.462 3.146-1.386l1.562 1.386c-1.203 1.452-2.787 2.178-4.752 2.178zM602.4 61.5h5.962c-.088-.895-.389-1.628-.902-2.2-.514-.572-1.196-.858-2.046-.858-.807 0-1.482.286-2.024.858-.543.557-.873 1.29-.99 2.2zm11.275 6.622V56.506h2.662v4.708h5.126v-4.708h2.662v11.616h-2.662v-4.686h-5.126v4.686h-2.662zm19.117.264c-1.701 0-3.124-.565-4.268-1.694-1.129-1.13-1.694-2.589-1.694-4.378 0-1.687.535-3.117 1.606-4.29 1.071-1.174 2.427-1.76 4.07-1.76 1.76 0 3.124.601 4.092 1.804.983 1.188 1.474 2.669 1.474 4.444 0 .322-.015.572-.044.748h-8.536c.147.924.521 1.65 1.122 2.178.601.513 1.342.77 2.222.77 1.144 0 2.193-.462 3.146-1.386l1.562 1.386c-1.203 1.452-2.787 2.178-4.752 2.178zM629.47 61.5h5.962c-.088-.895-.389-1.628-.902-2.2-.513-.572-1.195-.858-2.046-.858-.807 0-1.481.286-2.024.858-.543.557-.873 1.29-.99 2.2zm11.275 6.622V56.506h8.228v2.288h-5.566v9.328h-2.662zm16.93 0V56.506h2.662v4.708h5.126v-4.708h2.662v11.616h-2.662v-4.686h-5.126v4.686h-2.662zm19.117.264c-1.701 0-3.124-.565-4.268-1.694-1.129-1.13-1.694-2.589-1.694-4.378 0-1.687.535-3.117 1.606-4.29 1.071-1.174 2.427-1.76 4.07-1.76 1.76 0 3.124.601 4.092 1.804.983 1.188 1.474 2.669 1.474 4.444 0 .322-.015.572-.044.748h-8.536c.147.924.521 1.65 1.122 2.178.601.513 1.342.77 2.222.77 1.144 0 2.193-.462 3.146-1.386l1.562 1.386c-1.203 1.452-2.787 2.178-4.752 2.178zM673.47 61.5h5.962c-.088-.895-.389-1.628-.902-2.2-.513-.572-1.195-.858-2.046-.858-.807 0-1.481.286-2.024.858-.543.557-.873 1.29-.99 2.2zm23.547 4.576c.983 0 1.782-.338 2.398-1.012.631-.69.946-1.54.946-2.552 0-.998-.33-1.841-.99-2.53-.645-.704-1.445-1.056-2.398-1.056-.968 0-1.767.344-2.398 1.034-.616.689-.924 1.54-.924 2.552 0 .997.323 1.84.968 2.53.645.689 1.445 1.034 2.398 1.034zm-.044 2.31c-1.877 0-3.344-.594-4.4-1.782-1.056-1.188-1.584-2.853-1.584-4.994 0-.69.015-1.291.044-1.804.044-.528.117-1.093.22-1.694a6.533 6.533 0 01.462-1.606c.22-.455.491-.888.814-1.298a4.102 4.102 0 011.276-1.056 6.55 6.55 0 011.826-.66l6.336-1.32.44 2.134-6.336 1.386c-1.056.22-1.811.616-2.266 1.188-.455.557-.719 1.261-.792 2.112.352-.587.902-1.093 1.65-1.518.763-.44 1.701-.66 2.816-.66 1.511 0 2.809.55 3.894 1.65 1.1 1.085 1.65 2.42 1.65 4.004 0 1.628-.579 3.021-1.738 4.18-1.144 1.158-2.581 1.738-4.312 1.738zm14.086 0c-1.701 0-3.124-.565-4.268-1.694-1.129-1.13-1.694-2.589-1.694-4.378 0-1.687.536-3.117 1.606-4.29 1.071-1.174 2.428-1.76 4.07-1.76 1.76 0 3.124.601 4.092 1.804.983 1.188 1.474 2.669 1.474 4.444 0 .322-.014.572-.044.748h-8.536c.147.924.521 1.65 1.122 2.178.602.513 1.342.77 2.222.77 1.144 0 2.193-.462 3.146-1.386l1.562 1.386c-1.202 1.452-2.786 2.178-4.752 2.178zm-3.322-6.886h5.962c-.088-.895-.388-1.628-.902-2.2-.513-.572-1.195-.858-2.046-.858-.806 0-1.481.286-2.024.858-.542.557-.872 1.29-.99 2.2zm11.276 10.142V56.506h2.662v1.936c1.026-1.452 2.339-2.178 3.938-2.178 1.466 0 2.735.55 3.806 1.65 1.07 1.085 1.606 2.559 1.606 4.422 0 1.833-.536 3.3-1.606 4.4-1.071 1.085-2.34 1.628-3.806 1.628-1.599 0-2.912-.682-3.938-2.046v5.324h-2.662zm5.984-5.588c.938 0 1.723-.345 2.354-1.034.645-.69.968-1.599.968-2.728 0-1.1-.323-1.995-.968-2.684-.646-.69-1.43-1.034-2.354-1.034-.924 0-1.724.352-2.398 1.056-.66.704-.99 1.606-.99 2.706 0 1.085.33 1.98.99 2.684.674.689 1.474 1.034 2.398 1.034zm14.54-11.022v-2.596h2.706v2.596h-2.706zm-4.378 0v-2.596h2.706v2.596h-2.706zm3.916 13.354c-1.701 0-3.124-.565-4.268-1.694-1.129-1.13-1.694-2.589-1.694-4.378 0-1.687.535-3.117 1.606-4.29 1.071-1.174 2.427-1.76 4.07-1.76 1.76 0 3.124.601 4.092 1.804.983 1.188 1.474 2.669 1.474 4.444 0 .322-.015.572-.044.748h-8.536c.147.924.521 1.65 1.122 2.178.601.513 1.342.77 2.222.77 1.144 0 2.193-.462 3.146-1.386l1.562 1.386c-1.203 1.452-2.787 2.178-4.752 2.178zm-3.322-6.886h5.962c-.088-.895-.389-1.628-.902-2.2-.513-.572-1.195-.858-2.046-.858-.807 0-1.481.286-2.024.858-.543.557-.873 1.29-.99 2.2zm11.275 6.622V56.506h2.64l3.63 5.39 3.652-5.39h2.64v11.616h-2.684v-7.744l-3.652 5.214-3.63-5.17v7.7h-2.596zm15.723 0v-3.014h2.926v3.014h-2.926zm11.668 0l6.776-15.51h2.508l6.776 15.51h-2.86l-1.562-3.718h-7.282l-1.584 3.718h-2.772zm5.346-6.116h5.302l-2.662-6.16-2.64 6.16zm23.602 6.38c-1.994 0-3.688-.594-5.082-1.782l1.254-1.76c1.086.924 2.303 1.386 3.652 1.386.616 0 1.137-.147 1.562-.44.426-.308.638-.697.638-1.166 0-.44-.205-.792-.616-1.056-.41-.264-.99-.396-1.738-.396h-1.43v-1.914h1.43c.616 0 1.108-.14 1.474-.418.382-.294.572-.66.572-1.1 0-.396-.183-.712-.55-.946-.352-.25-.806-.374-1.364-.374-1.29 0-2.39.396-3.3 1.188l-1.188-1.672c1.276-1.115 2.853-1.672 4.73-1.672 1.276 0 2.318.293 3.124.88.807.586 1.21 1.334 1.21 2.244 0 1.232-.608 2.112-1.826 2.64 1.408.498 2.112 1.437 2.112 2.816 0 .997-.432 1.84-1.298 2.53-.865.674-1.987 1.012-3.366 1.012zm17.173-.264h-2.64v-1.43c-.939 1.114-2.193 1.672-3.762 1.672-1.159 0-2.141-.316-2.948-.946-.792-.646-1.188-1.54-1.188-2.684 0-1.247.433-2.193 1.298-2.838.865-.646 2.002-.968 3.41-.968 1.129 0 2.2.161 3.212.484v-.22c0-.807-.249-1.423-.748-1.848-.484-.426-1.188-.638-2.112-.638-1.056 0-2.163.242-3.322.726l-.726-2.134a10.69 10.69 0 014.422-.968c1.687 0 2.955.425 3.806 1.276.865.85 1.298 2.06 1.298 3.63v6.886zm-2.574-4.202v-.66c-.792-.308-1.679-.462-2.662-.462-.836 0-1.489.161-1.958.484-.469.322-.704.777-.704 1.364 0 .528.213.946.638 1.254.425.308.961.462 1.606.462.895 0 1.628-.228 2.2-.682.587-.455.88-1.042.88-1.76zm12.336 4.202V56.506h2.64v5.566l5.06-5.566h3.124l-4.51 4.884 4.884 6.732h-3.146l-3.52-4.796-1.892 2.002v2.794h-2.64zm13.041 3.52V56.506h2.662v1.936c1.027-1.452 2.339-2.178 3.938-2.178 1.467 0 2.735.55 3.806 1.65 1.071 1.085 1.606 2.559 1.606 4.422 0 1.833-.535 3.3-1.606 4.4-1.071 1.085-2.339 1.628-3.806 1.628-1.599 0-2.911-.682-3.938-2.046v5.324h-2.662zm5.984-5.588c.939 0 1.723-.345 2.354-1.034.645-.69.968-1.599.968-2.728 0-1.1-.323-1.995-.968-2.684-.645-.69-1.43-1.034-2.354-1.034-.924 0-1.723.352-2.398 1.056-.66.704-.99 1.606-.99 2.706 0 1.085.33 1.98.99 2.684.675.689 1.474 1.034 2.398 1.034zm18.5 2.068h-2.64v-1.43c-.938 1.114-2.192 1.672-3.762 1.672-1.158 0-2.141-.316-2.948-.946-.792-.646-1.188-1.54-1.188-2.684 0-1.247.433-2.193 1.298-2.838.866-.646 2.002-.968 3.41-.968 1.13 0 2.2.161 3.212.484v-.22c0-.807-.249-1.423-.748-1.848-.484-.426-1.188-.638-2.112-.638-1.056 0-2.163.242-3.322.726l-.726-2.134a10.686 10.686 0 014.422-.968c1.687 0 2.956.425 3.806 1.276.866.85 1.298 2.06 1.298 3.63v6.886zm-2.574-4.202v-.66c-.792-.308-1.679-.462-2.662-.462-.836 0-1.488.161-1.958.484-.469.322-.704.777-.704 1.364 0 .528.213.946.638 1.254.426.308.961.462 1.606.462.895 0 1.628-.228 2.2-.682.587-.455.88-1.042.88-1.76zm11.108 4.466c-1.716 0-3.146-.58-4.29-1.738-1.144-1.174-1.716-2.596-1.716-4.268v-.044c0-1.672.572-3.102 1.716-4.29 1.159-1.188 2.596-1.782 4.312-1.782 1.878 0 3.425.667 4.642 2.002l-1.65 1.782c-.924-.968-1.928-1.452-3.014-1.452-.953 0-1.752.359-2.398 1.078-.63.718-.946 1.591-.946 2.618v.044c0 1.056.323 1.943.968 2.662.66.718 1.496 1.078 2.508 1.078 1.071 0 2.076-.484 3.014-1.452l1.606 1.584c-.63.704-1.32 1.246-2.068 1.628-.733.366-1.628.55-2.684.55zm12.615 0c-1.76 0-3.226-.587-4.4-1.76-1.173-1.174-1.76-2.604-1.76-4.29 0-1.687.594-3.117 1.782-4.29 1.188-1.188 2.662-1.782 4.422-1.782 1.76 0 3.227.586 4.4 1.76 1.188 1.173 1.782 2.61 1.782 4.312 0 1.672-.594 3.102-1.782 4.29-1.188 1.173-2.669 1.76-4.444 1.76zm.044-2.31c1.056 0 1.907-.36 2.552-1.078.646-.719.968-1.606.968-2.662 0-1.042-.337-1.922-1.012-2.64-.674-.734-1.525-1.1-2.552-1.1-1.041 0-1.884.359-2.53 1.078-.645.718-.968 1.606-.968 2.662 0 1.026.338 1.906 1.012 2.64.675.733 1.518 1.1 2.53 1.1zm11.379 2.046v-9.328h-3.74v-2.288h10.164v2.288h-3.74v9.328h-2.684zm10.912 3.586a5.684 5.684 0 01-2.75-.704l.902-1.98c.542.293 1.063.44 1.562.44.381 0 .696-.103.946-.308.249-.191.484-.536.704-1.034l-4.84-11.616h2.838l3.3 8.624 3.014-8.624h2.772l-4.62 11.946c-.47 1.188-.99 2.024-1.562 2.508-.572.498-1.328.748-2.266.748zm16.885-9.064v-2.53h17.292v2.53h-17.292zm29.287 5.478v-9.328h-3.74v-2.288h10.164v2.288h-3.74v9.328h-2.684zm13.86.264c-1.702 0-3.124-.565-4.268-1.694-1.13-1.13-1.694-2.589-1.694-4.378 0-1.687.535-3.117 1.606-4.29 1.07-1.174 2.427-1.76 4.07-1.76 1.76 0 3.124.601 4.092 1.804.982 1.188 1.474 2.669 1.474 4.444 0 .322-.015.572-.044.748h-8.536c.146.924.52 1.65 1.122 2.178.601.513 1.342.77 2.222.77 1.144 0 2.192-.462 3.146-1.386l1.562 1.386c-1.203 1.452-2.787 2.178-4.752 2.178zm-3.322-6.886h5.962c-.088-.895-.389-1.628-.902-2.2-.514-.572-1.196-.858-2.046-.858-.807 0-1.482.286-2.024.858-.543.557-.873 1.29-.99 2.2zm11.275 6.622V56.506h2.64l3.63 5.39 3.652-5.39h2.64v11.616h-2.684v-7.744l-3.652 5.214-3.63-5.17v7.7h-2.596zm28.174-2.046c.98 0 1.78-.338 2.39-1.012.63-.69.95-1.54.95-2.552 0-.998-.33-1.841-.99-2.53-.65-.704-1.44-1.056-2.4-1.056-.97 0-1.77.344-2.4 1.034-.61.689-.92 1.54-.92 2.552 0 .997.32 1.84.97 2.53.64.689 1.44 1.034 2.4 1.034zm-.05 2.31c-1.88 0-3.34-.594-4.4-1.782-1.05-1.188-1.58-2.853-1.58-4.994 0-.69.01-1.291.04-1.804.05-.528.12-1.093.22-1.694.1-.616.26-1.152.46-1.606.22-.455.5-.888.82-1.298.34-.426.76-.778 1.27-1.056a6.59 6.59 0 011.83-.66l6.34-1.32.44 2.134-6.34 1.386c-1.06.22-1.81.616-2.27 1.188-.45.557-.71 1.261-.79 2.112.35-.587.9-1.093 1.65-1.518.76-.44 1.7-.66 2.82-.66 1.51 0 2.81.55 3.89 1.65 1.1 1.085 1.65 2.42 1.65 4.004 0 1.628-.58 3.021-1.74 4.18-1.14 1.158-2.58 1.738-4.31 1.738zm14.29 0c-1.76 0-3.23-.587-4.4-1.76-1.18-1.174-1.76-2.604-1.76-4.29 0-1.687.59-3.117 1.78-4.29 1.19-1.188 2.66-1.782 4.42-1.782 1.76 0 3.23.586 4.4 1.76 1.19 1.173 1.78 2.61 1.78 4.312 0 1.672-.59 3.102-1.78 4.29-1.19 1.173-2.67 1.76-4.44 1.76zm.04-2.31c1.06 0 1.91-.36 2.55-1.078.65-.719.97-1.606.97-2.662 0-1.042-.34-1.922-1.01-2.64-.68-.734-1.53-1.1-2.55-1.1-1.04 0-1.89.359-2.53 1.078-.65.718-.97 1.606-.97 2.662 0 1.026.34 1.906 1.01 2.64.68.733 1.52 1.1 2.53 1.1zm8.81 2.178c-.43 0-.95-.052-1.57-.154l.2-2.178c.24.058.49.088.77.088.31 0 .56-.044.75-.132.21-.088.41-.308.62-.66.22-.367.38-.88.5-1.54s.21-1.584.29-2.772c.07-1.203.11-2.67.11-4.4h8.78v11.616h-2.67v-9.328h-3.63c0 1.657-.06 3.065-.19 4.224-.14 1.158-.31 2.075-.53 2.75-.21.674-.5 1.202-.88 1.584-.37.366-.74.608-1.12.726-.39.117-.86.176-1.43.176zm19.11.132c-1.7 0-3.12-.565-4.26-1.694-1.13-1.13-1.7-2.589-1.7-4.378 0-1.687.54-3.117 1.61-4.29 1.07-1.174 2.43-1.76 4.07-1.76 1.76 0 3.12.601 4.09 1.804.98 1.188 1.47 2.669 1.47 4.444 0 .322-.01.572-.04.748h-8.54c.15.924.53 1.65 1.13 2.178.6.513 1.34.77 2.22.77 1.14 0 2.19-.462 3.14-1.386l1.57 1.386c-1.21 1.452-2.79 2.178-4.76 2.178zm-3.32-6.886h5.96c-.08-.895-.38-1.628-.9-2.2-.51-.572-1.19-.858-2.04-.858-.81 0-1.48.286-2.03.858-.54.557-.87 1.29-.99 2.2zm16.6 6.886c-1.7 0-3.12-.565-4.27-1.694-1.13-1.13-1.69-2.589-1.69-4.378 0-1.687.54-3.117 1.61-4.29 1.07-1.174 2.42-1.76 4.07-1.76 1.76 0 3.12.601 4.09 1.804.98 1.188 1.47 2.669 1.47 4.444 0 .322-.01.572-.04.748h-8.54c.15.924.52 1.65 1.12 2.178.61.513 1.35.77 2.23.77 1.14 0 2.19-.462 3.14-1.386l1.56 1.386c-1.2 1.452-2.78 2.178-4.75 2.178zm-3.32-6.886h5.96c-.09-.895-.39-1.628-.9-2.2-.51-.572-1.2-.858-2.05-.858-.8 0-1.48.286-2.02.858-.54.557-.87 1.29-.99 2.2zm11.1 6.622v-3.014h2.93v3.014h-2.93zM305.526 80.458c1.584 0 2.882.388 3.894 1.166 1.012.777 1.518 1.767 1.518 2.97 0 1.657-.873 2.852-2.618 3.586.924.278 1.657.726 2.2 1.342.542.616.814 1.4.814 2.354 0 1.305-.521 2.383-1.562 3.234-1.042.85-2.406 1.276-4.092 1.276-1.452 0-2.706-.206-3.762-.616-1.042-.426-2.01-1.064-2.904-1.914l1.474-1.87c1.437 1.364 3.146 2.046 5.126 2.046.85 0 1.562-.206 2.134-.616.586-.426.88-.99.88-1.694 0-.763-.323-1.328-.968-1.694-.646-.367-1.496-.55-2.552-.55h-1.738v-2.244h1.716c.997 0 1.774-.191 2.332-.572.557-.396.836-.954.836-1.672 0-.646-.272-1.166-.814-1.562-.528-.396-1.225-.594-2.09-.594-1.687 0-3.124.572-4.312 1.716l-1.452-1.76c1.628-1.555 3.608-2.332 5.94-2.332zm18.424 15.664h-2.64v-1.43c-.938 1.114-2.192 1.672-3.762 1.672-1.158 0-2.141-.316-2.948-.946-.792-.646-1.188-1.54-1.188-2.684 0-1.247.433-2.193 1.298-2.838.866-.646 2.002-.968 3.41-.968 1.13 0 2.2.161 3.212.484v-.22c0-.807-.249-1.423-.748-1.848-.484-.426-1.188-.638-2.112-.638-1.056 0-2.163.242-3.322.726l-.726-2.134a10.686 10.686 0 014.422-.968c1.687 0 2.956.425 3.806 1.276.866.85 1.298 2.06 1.298 3.63v6.886zm-2.574-4.202v-.66c-.792-.308-1.679-.462-2.662-.462-.836 0-1.488.161-1.958.484-.469.322-.704.777-.704 1.364 0 .528.213.946.638 1.254.426.308.961.462 1.606.462.895 0 1.628-.228 2.2-.682.587-.455.88-1.042.88-1.76zm8.226 4.202v-9.328h-3.74v-2.288h10.164v2.288h-3.74v9.328h-2.684zm14.058.264c-1.76 0-3.227-.587-4.4-1.76-1.174-1.174-1.76-2.604-1.76-4.29 0-1.687.594-3.117 1.782-4.29 1.188-1.188 2.662-1.782 4.422-1.782 1.76 0 3.226.586 4.4 1.76 1.188 1.173 1.782 2.61 1.782 4.312 0 1.672-.594 3.102-1.782 4.29-1.188 1.173-2.67 1.76-4.444 1.76zm.044-2.31c1.056 0 1.906-.36 2.552-1.078.645-.719.968-1.606.968-2.662 0-1.042-.338-1.922-1.012-2.64-.675-.734-1.526-1.1-2.552-1.1-1.042 0-1.885.359-2.53 1.078-.646.718-.968 1.606-.968 2.662 0 1.026.337 1.906 1.012 2.64.674.733 1.518 1.1 2.53 1.1zm21.165 0c.982 0 1.782-.338 2.398-1.012.63-.69.946-1.54.946-2.552 0-.998-.33-1.841-.99-2.53-.646-.704-1.445-1.056-2.398-1.056-.968 0-1.768.344-2.398 1.034-.616.689-.924 1.54-.924 2.552 0 .997.322 1.84.968 2.53.645.689 1.444 1.034 2.398 1.034zm-.044 2.31c-1.878 0-3.344-.594-4.4-1.782-1.056-1.188-1.584-2.853-1.584-4.994 0-.69.014-1.291.044-1.804.044-.528.117-1.093.22-1.694a6.447 6.447 0 01.462-1.606c.22-.455.491-.888.814-1.298a4.09 4.09 0 011.276-1.056 6.54 6.54 0 011.826-.66l6.336-1.32.44 2.134-6.336 1.386c-1.056.22-1.812.616-2.266 1.188-.455.557-.719 1.261-.792 2.112.352-.587.902-1.093 1.65-1.518.762-.44 1.701-.66 2.816-.66 1.51 0 2.808.55 3.894 1.65 1.1 1.085 1.65 2.42 1.65 4.004 0 1.628-.58 3.021-1.738 4.18-1.144 1.158-2.582 1.738-4.312 1.738zm14.086 0c-1.701 0-3.124-.565-4.268-1.694-1.129-1.13-1.694-2.589-1.694-4.378 0-1.687.535-3.117 1.606-4.29 1.071-1.174 2.427-1.76 4.07-1.76 1.76 0 3.124.601 4.092 1.804.983 1.188 1.474 2.669 1.474 4.444 0 .322-.015.572-.044.748h-8.536c.147.924.521 1.65 1.122 2.178.601.513 1.342.77 2.222.77 1.144 0 2.193-.462 3.146-1.386l1.562 1.386c-1.203 1.452-2.787 2.178-4.752 2.178zm-3.322-6.886h5.962c-.088-.895-.389-1.628-.902-2.2-.513-.572-1.195-.858-2.046-.858-.807 0-1.481.286-2.024.858-.543.557-.873 1.29-.99 2.2zm11.275 10.142V84.506h2.662v1.936c1.027-1.452 2.34-2.178 3.938-2.178 1.467 0 2.736.55 3.806 1.65 1.071 1.085 1.606 2.559 1.606 4.422 0 1.833-.535 3.3-1.606 4.4-1.07 1.085-2.339 1.628-3.806 1.628-1.598 0-2.911-.682-3.938-2.046v5.324h-2.662zm5.984-5.588c.939 0 1.724-.345 2.354-1.034.646-.69.968-1.599.968-2.728 0-1.1-.322-1.995-.968-2.684-.645-.69-1.43-1.034-2.354-1.034-.924 0-1.723.352-2.398 1.056-.66.704-.99 1.606-.99 2.706 0 1.085.33 1.98.99 2.684.675.689 1.474 1.034 2.398 1.034zm14.541-11.022v-2.596h2.706v2.596h-2.706zm-4.378 0v-2.596h2.706v2.596h-2.706zm3.916 13.354c-1.702 0-3.124-.565-4.268-1.694-1.13-1.13-1.694-2.589-1.694-4.378 0-1.687.535-3.117 1.606-4.29 1.07-1.174 2.427-1.76 4.07-1.76 1.76 0 3.124.601 4.092 1.804.982 1.188 1.474 2.669 1.474 4.444 0 .322-.015.572-.044.748h-8.536c.146.924.52 1.65 1.122 2.178.601.513 1.342.77 2.222.77 1.144 0 2.192-.462 3.146-1.386l1.562 1.386c-1.203 1.452-2.787 2.178-4.752 2.178zm-3.322-6.886h5.962c-.088-.895-.389-1.628-.902-2.2-.514-.572-1.196-.858-2.046-.858-.807 0-1.482.286-2.024.858-.543.557-.873 1.29-.99 2.2zm11.275 6.622V84.506h2.64l3.63 5.39 3.652-5.39h2.64v11.616h-2.684v-7.744l-3.652 5.214-3.63-5.17v7.7h-2.596zm21.152 2.794v-5.082h1.254c.865-1.731 1.298-4.364 1.298-7.898v-1.43h8.998v9.328h1.65l-.352 5.082h-2.222v-2.794h-8.14l-.264 2.794h-2.222zm3.982-5.082h4.906v-7.04h-3.828v1.54c0 2.156-.359 3.989-1.078 5.5zm16.756 2.552c-1.701 0-3.124-.565-4.268-1.694-1.129-1.13-1.694-2.589-1.694-4.378 0-1.687.536-3.117 1.606-4.29 1.071-1.174 2.428-1.76 4.07-1.76 1.76 0 3.124.601 4.092 1.804.983 1.188 1.474 2.669 1.474 4.444 0 .322-.014.572-.044.748h-8.536c.147.924.521 1.65 1.122 2.178.602.513 1.342.77 2.222.77 1.144 0 2.193-.462 3.146-1.386l1.562 1.386c-1.202 1.452-2.786 2.178-4.752 2.178zm-3.322-6.886h5.962c-.088-.895-.388-1.628-.902-2.2-.513-.572-1.195-.858-2.046-.858-.806 0-1.481.286-2.024.858-.542.557-.872 1.29-.99 2.2zm11.276 6.622V84.506h2.662v4.708h5.126v-4.708h2.662v11.616h-2.662v-4.686h-5.126v4.686h-2.662zm13.793 0V84.506h2.662v4.07h2.662c1.378 0 2.493.308 3.344.924.85.616 1.276 1.532 1.276 2.75 0 1.202-.396 2.148-1.188 2.838-.792.689-1.87 1.034-3.234 1.034h-5.522zm2.662-2.156h2.508c.674 0 1.195-.147 1.562-.44.366-.294.55-.719.55-1.276 0-.514-.191-.91-.572-1.188-.367-.279-.895-.418-1.584-.418h-2.464v3.322zm9.605 2.156V84.506h8.228v2.288h-5.566v9.328h-2.662zm10.334 0V84.506h2.596v7.788a1789.08 1789.08 0 015.5-7.788h2.508v11.616h-2.574v-7.744l-5.522 7.744h-2.508zm24.499.264c-1.994 0-3.688-.594-5.082-1.782l1.254-1.76c1.086.924 2.303 1.386 3.652 1.386.616 0 1.137-.147 1.562-.44.426-.308.638-.697.638-1.166 0-.44-.205-.792-.616-1.056-.41-.264-.99-.396-1.738-.396h-1.43v-1.914h1.43c.616 0 1.108-.14 1.474-.418.382-.294.572-.66.572-1.1 0-.396-.183-.712-.55-.946-.352-.25-.806-.374-1.364-.374-1.29 0-2.39.396-3.3 1.188l-1.188-1.672c1.276-1.115 2.853-1.672 4.73-1.672 1.276 0 2.318.293 3.124.88.807.586 1.21 1.334 1.21 2.244 0 1.232-.608 2.112-1.826 2.64 1.408.498 2.112 1.437 2.112 2.816 0 .997-.432 1.84-1.298 2.53-.865.674-1.987 1.012-3.366 1.012zm17.173-.264h-2.64v-1.43c-.939 1.114-2.193 1.672-3.762 1.672-1.159 0-2.141-.316-2.948-.946-.792-.646-1.188-1.54-1.188-2.684 0-1.247.433-2.193 1.298-2.838.865-.646 2.002-.968 3.41-.968 1.129 0 2.2.161 3.212.484v-.22c0-.807-.249-1.423-.748-1.848-.484-.426-1.188-.638-2.112-.638-1.056 0-2.163.242-3.322.726l-.726-2.134a10.69 10.69 0 014.422-.968c1.687 0 2.955.425 3.806 1.276.865.85 1.298 2.06 1.298 3.63v6.886zm-2.574-4.202v-.66c-.792-.308-1.679-.462-2.662-.462-.836 0-1.489.161-1.958.484-.469.322-.704.777-.704 1.364 0 .528.213.946.638 1.254.425.308.961.462 1.606.462.895 0 1.628-.228 2.2-.682.587-.455.88-1.042.88-1.76zm12.336 4.202V84.506h2.64v5.566l5.06-5.566h3.124l-4.51 4.884 4.884 6.732h-3.146l-3.52-4.796-1.892 2.002v2.794h-2.64zm13.041 3.52V84.506h2.662v1.936c1.027-1.452 2.339-2.178 3.938-2.178 1.467 0 2.735.55 3.806 1.65 1.071 1.085 1.606 2.559 1.606 4.422 0 1.833-.535 3.3-1.606 4.4-1.071 1.085-2.339 1.628-3.806 1.628-1.599 0-2.911-.682-3.938-2.046v5.324h-2.662zm5.984-5.588c.939 0 1.723-.345 2.354-1.034.645-.69.968-1.599.968-2.728 0-1.1-.323-1.995-.968-2.684-.645-.69-1.43-1.034-2.354-1.034-.924 0-1.723.352-2.398 1.056-.66.704-.99 1.606-.99 2.706 0 1.085.33 1.98.99 2.684.675.689 1.474 1.034 2.398 1.034zm11.13 5.654a5.687 5.687 0 01-2.75-.704l.902-1.98c.543.293 1.064.44 1.562.44.382 0 .697-.103.946-.308.25-.191.484-.536.704-1.034l-4.84-11.616h2.838l3.3 8.624 3.014-8.624h2.772l-4.62 11.946c-.469 1.188-.99 2.024-1.562 2.508-.572.498-1.327.748-2.266.748zm13.216-3.586v-9.328h-3.74v-2.288h10.164v2.288h-3.74v9.328h-2.684zm8.535 0V84.506h2.662v4.07h2.442c1.379 0 2.493.308 3.344.924.851.616 1.276 1.532 1.276 2.75 0 1.202-.396 2.148-1.188 2.838-.792.689-1.87 1.034-3.234 1.034h-5.302zm2.662-2.156h2.288c.675 0 1.195-.147 1.562-.44.367-.294.55-.719.55-1.276 0-.514-.191-.91-.572-1.188-.367-.279-.895-.418-1.584-.418h-2.244v3.322zm8.822 2.156V84.506h2.662v11.616h-2.662zm11.328.264c-1.701 0-3.124-.565-4.268-1.694-1.129-1.13-1.694-2.589-1.694-4.378 0-1.687.536-3.117 1.606-4.29 1.071-1.174 2.428-1.76 4.07-1.76 1.76 0 3.124.601 4.092 1.804.983 1.188 1.474 2.669 1.474 4.444 0 .322-.014.572-.044.748h-8.536c.147.924.521 1.65 1.122 2.178.602.513 1.342.77 2.222.77 1.144 0 2.193-.462 3.146-1.386l1.562 1.386c-1.202 1.452-2.786 2.178-4.752 2.178zm-3.322-6.886h5.962c-.088-.895-.388-1.628-.902-2.2-.513-.572-1.195-.858-2.046-.858-.806 0-1.481.286-2.024.858-.542.557-.872 1.29-.99 2.2zm23.239 6.886c-1.716 0-3.146-.58-4.29-1.738-1.144-1.174-1.716-2.596-1.716-4.268v-.044c0-1.672.572-3.102 1.716-4.29 1.159-1.188 2.596-1.782 4.312-1.782 1.878 0 3.425.667 4.642 2.002l-1.65 1.782c-.924-.968-1.928-1.452-3.014-1.452-.953 0-1.752.359-2.398 1.078-.63.718-.946 1.591-.946 2.618v.044c0 1.056.323 1.943.968 2.662.66.718 1.496 1.078 2.508 1.078 1.071 0 2.076-.484 3.014-1.452l1.606 1.584c-.63.704-1.32 1.246-2.068 1.628-.733.366-1.628.55-2.684.55zm16.839-.264h-2.64v-1.43c-.938 1.114-2.192 1.672-3.762 1.672-1.158 0-2.141-.316-2.948-.946-.792-.646-1.188-1.54-1.188-2.684 0-1.247.433-2.193 1.298-2.838.866-.646 2.002-.968 3.41-.968 1.13 0 2.2.161 3.212.484v-.22c0-.807-.249-1.423-.748-1.848-.484-.426-1.188-.638-2.112-.638-1.056 0-2.163.242-3.322.726l-.726-2.134a10.686 10.686 0 014.422-.968c1.687 0 2.956.425 3.806 1.276.866.85 1.298 2.06 1.298 3.63v6.886zm-2.574-4.202v-.66c-.792-.308-1.679-.462-2.662-.462-.836 0-1.488.161-1.958.484-.469.322-.704.777-.704 1.364 0 .528.213.946.638 1.254.426.308.961.462 1.606.462.895 0 1.628-.228 2.2-.682.587-.455.88-1.042.88-1.76zm13.353-9.57c-.602.542-1.364.814-2.288.814-.924 0-1.694-.272-2.31-.814-.616-.558-.998-1.306-1.144-2.244l1.628-.308c.308.997.916 1.496 1.826 1.496.909 0 1.518-.499 1.826-1.496l1.606.308c-.147.938-.528 1.686-1.144 2.244zm-7.612 13.772V84.506h2.596v7.788a1788.16 1788.16 0 015.5-7.788h2.508v11.616h-2.574v-7.744l-5.522 7.744h-2.508zm16.429 0v-9.328h-3.74v-2.288h10.164v2.288h-3.74v9.328h-2.684zm8.535 0V84.506h2.662v4.07h2.442c1.379 0 2.494.308 3.344.924.851.616 1.276 1.532 1.276 2.75 0 1.202-.396 2.148-1.188 2.838-.792.689-1.87 1.034-3.234 1.034h-5.302zm2.662-2.156h2.288c.675 0 1.196-.147 1.562-.44.367-.294.55-.719.55-1.276 0-.514-.19-.91-.572-1.188-.366-.279-.894-.418-1.584-.418h-2.244v3.322zm8.822 2.156V84.506h2.662v11.616h-2.662zm5.367 3.19l-.286-1.122c1.261-.25 1.892-.858 1.892-1.826a.646.646 0 00-.022-.132v-.11h-1.122v-3.014h2.926v2.552c0 1.188-.279 2.068-.836 2.64-.558.586-1.408.924-2.552 1.012zm13.142-3.19V84.506h10.362v11.616h-2.662v-9.328h-5.038v9.328h-2.662zm19.229.264c-1.76 0-3.227-.587-4.4-1.76-1.174-1.174-1.76-2.604-1.76-4.29 0-1.687.594-3.117 1.782-4.29 1.188-1.188 2.662-1.782 4.422-1.782 1.76 0 3.226.586 4.4 1.76 1.188 1.173 1.782 2.61 1.782 4.312 0 1.672-.594 3.102-1.782 4.29-1.188 1.173-2.67 1.76-4.444 1.76zm.044-2.31c1.056 0 1.906-.36 2.552-1.078.645-.719.968-1.606.968-2.662 0-1.042-.338-1.922-1.012-2.64-.675-.734-1.526-1.1-2.552-1.1-1.042 0-1.885.359-2.53 1.078-.646.718-.968 1.606-.968 2.662 0 1.026.337 1.906 1.012 2.64.674.733 1.518 1.1 2.53 1.1zm11.379 2.046v-9.328h-3.74v-2.288h10.164v2.288h-3.74v9.328h-2.684zm14.057.264c-1.76 0-3.227-.587-4.4-1.76-1.173-1.174-1.76-2.604-1.76-4.29 0-1.687.594-3.117 1.782-4.29 1.188-1.188 2.662-1.782 4.422-1.782 1.76 0 3.227.586 4.4 1.76 1.188 1.173 1.782 2.61 1.782 4.312 0 1.672-.594 3.102-1.782 4.29-1.188 1.173-2.669 1.76-4.444 1.76zm.044-2.31c1.056 0 1.907-.36 2.552-1.078.645-.719.968-1.606.968-2.662 0-1.042-.337-1.922-1.012-2.64-.675-.734-1.525-1.1-2.552-1.1-1.041 0-1.885.359-2.53 1.078-.645.718-.968 1.606-.968 2.662 0 1.026.337 1.906 1.012 2.64.675.733 1.518 1.1 2.53 1.1zm8.893 2.046V84.506h2.64l3.63 5.39 3.652-5.39h2.64v11.616h-2.684v-7.744l-3.652 5.214-3.63-5.17v7.7h-2.596zm18.274 3.586a5.687 5.687 0 01-2.75-.704l.902-1.98c.543.293 1.064.44 1.562.44.382 0 .697-.103.946-.308.25-.191.484-.536.704-1.034l-4.84-11.616h2.838l3.3 8.624 3.014-8.624h2.772l-4.62 11.946c-.469 1.188-.99 2.024-1.562 2.508-.572.498-1.327.748-2.266.748zm24.388-3.586v-4.334c-1.144.586-2.296.88-3.454.88-1.188 0-2.149-.316-2.882-.946-.719-.646-1.078-1.548-1.078-2.706v-4.51h2.662v3.872c0 .557.176 1.034.528 1.43.352.396.814.594 1.386.594.997 0 1.943-.257 2.838-.77v-5.126h2.662v11.616h-2.662zm8.486 0v-9.328h-3.74v-2.288h10.164v2.288h-3.74v9.328h-2.684zm14.058.264c-1.76 0-3.227-.587-4.4-1.76-1.174-1.174-1.76-2.604-1.76-4.29 0-1.687.594-3.117 1.782-4.29 1.188-1.188 2.662-1.782 4.422-1.782 1.76 0 3.226.586 4.4 1.76 1.188 1.173 1.782 2.61 1.782 4.312 0 1.672-.594 3.102-1.782 4.29-1.188 1.173-2.67 1.76-4.444 1.76zm.044-2.31c1.056 0 1.906-.36 2.552-1.078.645-.719.968-1.606.968-2.662 0-1.042-.338-1.922-1.012-2.64-.675-.734-1.526-1.1-2.552-1.1-1.042 0-1.885.359-2.53 1.078-.646.718-.968 1.606-.968 2.662 0 1.026.337 1.906 1.012 2.64.674.733 1.518 1.1 2.53 1.1zm15.4 2.178c-.425 0-.946-.052-1.562-.154l.198-2.178c.235.058.492.088.77.088.308 0 .558-.044.748-.132.206-.088.411-.308.616-.66.22-.367.389-.88.506-1.54.118-.66.213-1.584.286-2.772.074-1.203.11-2.67.11-4.4h8.778v11.616h-2.662v-9.328h-3.63c0 1.657-.066 3.065-.198 4.224-.132 1.158-.308 2.075-.528 2.75-.205.674-.498 1.202-.88 1.584-.366.366-.74.608-1.122.726-.381.117-.858.176-1.43.176zm24.113.132c-1.525 0-2.801-.462-3.828-1.386-1.012-.939-1.628-2.134-1.848-3.586h-2.002v4.708h-2.64V84.506h2.64v4.708h2.002c.235-1.423.866-2.596 1.892-3.52 1.042-.939 2.318-1.408 3.828-1.408 1.716 0 3.11.579 4.18 1.738 1.071 1.158 1.606 2.596 1.606 4.312 0 1.686-.542 3.116-1.628 4.29-1.085 1.173-2.486 1.76-4.202 1.76zm.044-2.31c.998 0 1.768-.352 2.31-1.056.558-.719.836-1.614.836-2.684 0-1.056-.293-1.944-.88-2.662-.572-.719-1.342-1.078-2.31-1.078-.997 0-1.767.352-2.31 1.056-.542.704-.814 1.598-.814 2.684 0 1.056.286 1.943.858 2.662.572.718 1.342 1.078 2.31 1.078zm14.178 0c.982 0 1.782-.338 2.398-1.012.63-.69.946-1.54.946-2.552 0-.998-.33-1.841-.99-2.53-.646-.704-1.445-1.056-2.398-1.056-.968 0-1.768.344-2.398 1.034-.616.689-.924 1.54-.924 2.552 0 .997.322 1.84.968 2.53.645.689 1.444 1.034 2.398 1.034zm-.044 2.31c-1.878 0-3.344-.594-4.4-1.782-1.056-1.188-1.584-2.853-1.584-4.994 0-.69.014-1.291.044-1.804.044-.528.117-1.093.22-1.694a6.447 6.447 0 01.462-1.606c.22-.455.491-.888.814-1.298a4.09 4.09 0 011.276-1.056 6.54 6.54 0 011.826-.66l6.336-1.32.44 2.134-6.336 1.386c-1.056.22-1.812.616-2.266 1.188-.455.557-.719 1.261-.792 2.112.352-.587.902-1.093 1.65-1.518.762-.44 1.701-.66 2.816-.66 1.51 0 2.808.55 3.894 1.65 1.1 1.085 1.65 2.42 1.65 4.004 0 1.628-.58 3.021-1.738 4.18-1.144 1.158-2.582 1.738-4.312 1.738zm8.762-.264V84.506h2.596v7.788a1789.08 1789.08 0 015.5-7.788h2.508v11.616h-2.574v-7.744l-5.522 7.744h-2.508zm13.944 0V84.506h2.64l3.63 5.39 3.652-5.39h2.64v11.616h-2.684v-7.744l-3.652 5.214-3.63-5.17v7.7h-2.596zm22.494 0V84.506h2.596v7.788a1788.16 1788.16 0 015.5-7.788h2.508v11.616h-2.574v-7.744l-5.522 7.744h-2.508zm13.943 0V84.506h2.662v4.708h5.126v-4.708h2.662v11.616h-2.662v-4.686h-5.126v4.686h-2.662zm19.315.264c-1.76 0-3.227-.587-4.4-1.76-1.173-1.174-1.76-2.604-1.76-4.29 0-1.687.594-3.117 1.782-4.29 1.188-1.188 2.662-1.782 4.422-1.782 1.76 0 3.227.586 4.4 1.76 1.188 1.173 1.782 2.61 1.782 4.312 0 1.672-.594 3.102-1.782 4.29-1.188 1.173-2.669 1.76-4.444 1.76zm.044-2.31c1.056 0 1.907-.36 2.552-1.078.645-.719.968-1.606.968-2.662 0-1.042-.337-1.922-1.012-2.64-.675-.734-1.525-1.1-2.552-1.1-1.041 0-1.885.359-2.53 1.078-.645.718-.968 1.606-.968 2.662 0 1.026.337 1.906 1.012 2.64.675.733 1.518 1.1 2.53 1.1zm8.893 2.046V84.506h8.228v2.288h-5.566v9.328h-2.662zm8.992 2.794v-5.082h1.254c.865-1.731 1.298-4.364 1.298-7.898v-1.43h8.994v9.328h1.65l-.35 5.082h-2.22v-2.794h-8.14l-.264 2.794h-2.222zm3.982-5.082h4.904v-7.04h-3.826v1.54c0 2.156-.359 3.989-1.078 5.5zm21.174 2.288h-2.64v-1.43c-.93 1.114-2.19 1.672-3.76 1.672-1.16 0-2.14-.316-2.95-.946-.79-.646-1.18-1.54-1.18-2.684 0-1.247.43-2.193 1.29-2.838.87-.646 2.01-.968 3.41-.968 1.13 0 2.2.161 3.22.484v-.22c0-.807-.25-1.423-.75-1.848-.49-.426-1.19-.638-2.11-.638-1.06 0-2.17.242-3.33.726l-.72-2.134c1.44-.646 2.91-.968 4.42-.968 1.69 0 2.96.425 3.81 1.276.86.85 1.29 2.06 1.29 3.63v6.886zm-2.57-4.202v-.66c-.79-.308-1.68-.462-2.66-.462-.84 0-1.49.161-1.96.484-.47.322-.7.777-.7 1.364 0 .528.21.946.63 1.254.43.308.96.462 1.61.462.89 0 1.63-.228 2.2-.682.59-.455.88-1.042.88-1.76zm12.34 4.202V84.506h10.36v11.616h-2.66v-9.328h-5.04v9.328h-2.66zm19.23.264c-1.76 0-3.23-.587-4.4-1.76-1.18-1.174-1.76-2.604-1.76-4.29 0-1.687.59-3.117 1.78-4.29 1.19-1.188 2.66-1.782 4.42-1.782 1.76 0 3.23.586 4.4 1.76 1.19 1.173 1.78 2.61 1.78 4.312 0 1.672-.59 3.102-1.78 4.29-1.19 1.173-2.67 1.76-4.44 1.76zm.04-2.31c1.06 0 1.91-.36 2.55-1.078.65-.719.97-1.606.97-2.662 0-1.042-.34-1.922-1.01-2.64-.68-.734-1.53-1.1-2.55-1.1-1.05 0-1.89.359-2.53 1.078-.65.718-.97 1.606-.97 2.662 0 1.026.33 1.906 1.01 2.64.67.733 1.52 1.1 2.53 1.1zm8.89 2.046V84.506h2.64v5.566l5.06-5.566h3.13l-4.51 4.884 4.88 6.732h-3.15l-3.52-4.796-1.89 2.002v2.794h-2.64zm15.42 3.586c-.97 0-1.89-.235-2.75-.704l.9-1.98c.54.293 1.06.44 1.56.44.38 0 .7-.103.95-.308.25-.191.48-.536.7-1.034l-4.84-11.616h2.84l3.3 8.624 3.02-8.624h2.77l-4.62 11.946c-.47 1.188-.99 2.024-1.56 2.508-.58.498-1.33.748-2.27.748zm10.73-3.586V84.506h2.66v9.328h4.29v-9.328h2.64v9.328h4.29v-9.328h2.66v11.616h-16.54zm29.64 0h-2.64v-1.43c-.94 1.114-2.19 1.672-3.76 1.672-1.16 0-2.14-.316-2.95-.946-.79-.646-1.19-1.54-1.19-2.684 0-1.247.43-2.193 1.3-2.838.86-.646 2-.968 3.41-.968 1.13 0 2.2.161 3.21.484v-.22c0-.807-.25-1.423-.75-1.848-.48-.426-1.18-.638-2.11-.638-1.05 0-2.16.242-3.32.726l-.73-2.134c1.44-.646 2.91-.968 4.43-.968 1.68 0 2.95.425 3.8 1.276.87.85 1.3 2.06 1.3 3.63v6.886zm-2.57-4.202v-.66c-.8-.308-1.68-.462-2.67-.462-.83 0-1.49.161-1.95.484-.47.322-.71.777-.71 1.364 0 .528.21.946.64 1.254.42.308.96.462 1.61.462.89 0 1.62-.228 2.2-.682.58-.455.88-1.042.88-1.76zm8.22 4.202v-9.328h-3.74v-2.288h10.17v2.288h-3.74v9.328h-2.69zm8.54 0V84.506h2.66v4.07h2.66c1.38 0 2.49.308 3.34.924.86.616 1.28 1.532 1.28 2.75 0 1.202-.4 2.148-1.19 2.838-.79.689-1.87 1.034-3.23 1.034h-5.52zm2.66-2.156h2.51c.67 0 1.19-.147 1.56-.44.37-.294.55-.719.55-1.276 0-.514-.19-.91-.57-1.188-.37-.279-.9-.418-1.59-.418h-2.46v3.322zm9.43 2.156v-3.014h2.92v3.014h-2.92z" fill="#fff"/><path d="M247.848 16.71c0 4.184-6.151 4.785-7.177 4.785-21.977 0-19.937 19.546-19.937 29.506 6.868 0 22.605-.856 28.099.539 6.868 1.743 8.012 7.554 8.585 10.46v38.351c0 5.579-4.785 9.663-8.585 10.46h-36.056c-5.494 0-11.81-5.582-12.019-10.46-.572-13.365-1.373-45.673 0-67.987C202.475 4.472 242.022.612 245.456 2.356c3.434 1.743 2.392 9.124 2.392 14.354zm68.582.356c0 4.183-6.151 4.784-7.177 4.784-21.977 0-19.937 19.547-19.937 29.507 6.868 0 22.605-.856 28.099.538 6.868 1.744 8.013 7.554 8.585 10.46v38.352c0 5.578-4.785 9.662-8.585 10.46h-36.056c-5.494 0-11.809-5.583-12.018-10.46-.573-13.365-1.374-45.674 0-67.988C271.058 4.827 310.604.968 314.038 2.711c3.434 1.743 2.392 9.125 2.392 14.354zm875.72 130.246c0-4.177 6.15-4.777 7.18-4.777 21.98 0 19.94-19.517 19.94-29.461-6.87 0-22.61.854-28.1-.538-6.87-1.741-8.02-7.543-8.59-10.444V63.799c0-5.57 4.79-9.648 8.59-10.444h36.05c5.5 0 11.81 5.574 12.02 10.444.57 13.344 1.38 45.604 0 67.883-1.72 27.85-41.26 31.704-44.7 29.963-3.43-1.741-2.39-9.111-2.39-14.333zm-68.58-.355c0-4.178 6.15-4.778 7.18-4.778 21.97 0 19.93-19.516 19.93-29.461-6.86 0-22.6.855-28.1-.538-6.86-1.74-8.01-7.542-8.58-10.443V63.443c0-5.57 4.78-9.648 8.58-10.444h36.06c5.5 0 11.81 5.574 12.02 10.444.57 13.345 1.37 45.604 0 67.884-1.72 27.85-41.26 31.703-44.7 29.962-3.43-1.74-2.39-9.11-2.39-14.332z" opacity=".3" fill="#fff"/><defs><linearGradient id="paint0_linear" x1="-19.264" y1="82.004" x2="1440" y2="82.004" gradientUnits="userSpaceOnUse"><stop stop-color="#D2302F"/><stop offset="1" stop-color="#BC33DC"/></linearGradient></defs></svg>