<svg width="18" height="14" fill="none" xmlns="http://www.w3.org/2000/svg"><path d="M.855 1.848c2.333 2.015 6.427 5.559 7.63 6.664.162.15.335.225.515.225s.352-.075.514-.223c1.204-1.107 5.298-4.651 7.631-6.666a.366.366 0 00.05-.498 1.397 1.397 0 00-1.112-.557H1.917c-.435 0-.84.203-1.112.557a.366.366 0 00.05.498z" fill="url(#paint0_linear)"/><path d="M17.295 2.939a.347.347 0 00-.378.052c-2.588 2.237-5.89 5.103-6.929 6.058-.583.537-1.392.537-1.977 0C6.904 8.03 3.195 4.815 1.083 2.99a.349.349 0 00-.378-.052.362.362 0 00-.205.328v9.08c0 .798.635 1.445 1.417 1.445h14.166c.782 0 1.417-.647 1.417-1.444v-9.08a.36.36 0 00-.205-.328z" fill="url(#paint1_linear)"/><defs><linearGradient id="paint0_linear" x1="1.633" y1=".793" x2="10.852" y2="8.705" gradientUnits="userSpaceOnUse"><stop stop-color="#D2302F"/><stop offset="1" stop-color="#BC33DC"/></linearGradient><linearGradient id="paint1_linear" x1="1.633" y1="4.259" x2="13.138" y2="13.286" gradientUnits="userSpaceOnUse"><stop stop-color="#D2302F"/><stop offset="1" stop-color="#BC33DC"/></linearGradient></defs></svg>