<svg width="517" height="89" fill="none" xmlns="http://www.w3.org/2000/svg"><path d="M85.813 76.041C76.923 84.681 65.852 89 52.6 89c-13.252 0-24.324-4.279-33.214-12.837C10.577 67.525 6.174 56.97 6.174 44.5c0-12.388 4.445-22.902 13.335-31.541C28.48 4.319 39.593 0 52.846 0 66.1 0 77.13 4.32 85.936 12.959c8.89 8.558 13.336 19.071 13.336 31.541 0 12.388-4.486 22.902-13.459 31.541zm-32.967-8.435c6.503 0 11.771-2.241 15.805-6.724 4.115-4.483 6.173-9.943 6.173-16.382 0-6.357-2.099-11.777-6.297-16.26-4.198-4.564-9.507-6.846-15.928-6.846-6.42 0-11.688 2.242-15.804 6.724-4.034 4.483-6.05 9.943-6.05 16.382 0 6.357 2.058 11.818 6.173 16.382 4.198 4.483 9.508 6.724 15.928 6.724zm71.991 19.682V39.855h-19.508V21.15h62.477v18.704h-19.509v47.434h-23.46zM199.213 89c-6.667 0-12.141-.652-16.422-1.956-4.198-1.386-8.56-3.79-13.088-7.213l9.261-14.426c2.552 1.956 5.803 3.546 9.754 4.768 4.034 1.223 7.45 1.834 10.248 1.834 6.339 0 9.508-1.752 9.508-5.257 0-3.668-3.087-5.501-9.261-5.501h-8.396V46.7h8.273c5.186 0 7.779-1.874 7.779-5.623 0-1.223-.7-2.282-2.099-3.179-1.4-.896-3.375-1.344-5.927-1.344-2.963 0-6.174.652-9.631 1.956-3.457 1.222-6.256 2.77-8.396 4.645l-9.384-12.714c7.82-7.172 17.945-10.758 30.374-10.758 8.89 0 15.805 1.67 20.744 5.012 4.939 3.342 7.408 7.661 7.408 12.959 0 7.009-3.54 12.021-10.619 15.037 8.314 2.852 12.471 7.987 12.471 15.404 0 6.275-2.716 11.329-8.149 15.16-5.351 3.83-13.5 5.745-24.448 5.745zm113.097-1.712V21.15h23.46v66.138h-23.46zm-69.885 0V21.15h23.46v20.783h11.359c8.232 0 14.858 1.956 19.879 5.868 5.104 3.83 7.656 9.372 7.656 16.626 0 7.09-2.388 12.674-7.162 16.749-4.774 4.075-11.236 6.112-19.385 6.112h-35.807zm23.46-16.381h7.285c6.009 0 9.013-2.405 9.013-7.213 0-2.12-.823-3.79-2.469-5.013-1.564-1.222-3.746-1.834-6.544-1.834h-7.285v14.06zm82.529 16.381V21.15h39.634c8.149 0 14.241 1.997 18.274 5.99 2.881 2.69 4.322 6.276 4.322 10.758 0 6.846-3.458 11.777-10.372 14.793 4.28 1.386 7.45 3.382 9.507 5.99 2.141 2.527 3.211 5.99 3.211 10.392 0 5.705-2.223 10.188-6.668 13.448-4.445 3.178-10.66 4.767-18.644 4.767h-39.264zm22.842-15.037h9.631c2.716 0 4.815-.53 6.297-1.589 1.564-1.14 2.346-2.69 2.346-4.646 0-1.793-.782-3.26-2.346-4.4-1.482-1.142-3.663-1.712-6.544-1.712h-9.384V72.25zm0-24.817h7.902c2.634 0 4.692-.53 6.174-1.59 1.482-1.059 2.222-2.485 2.222-4.278 0-1.712-.699-3.056-2.099-4.034-1.399-1.06-3.375-1.59-5.926-1.59h-8.273v11.492zM493.54 87.288V21.15H517v66.138h-23.46zm-69.885 0V21.15h23.459v20.783h11.36c8.231 0 14.858 1.956 19.879 5.868 5.104 3.83 7.655 9.372 7.655 16.626 0 7.09-2.387 12.674-7.161 16.749-4.774 4.075-11.236 6.112-19.385 6.112h-35.807zm23.459-16.381h7.285c6.009 0 9.014-2.405 9.014-7.213 0-2.12-.823-3.79-2.47-5.013-1.564-1.222-3.745-1.834-6.544-1.834h-7.285v14.06z" opacity=".4" fill="#D2302F"/><path d="M79.64 76.041C70.75 84.681 59.678 89 46.426 89c-13.253 0-24.324-4.279-33.214-12.837C4.404 67.525 0 56.97 0 44.5c0-12.388 4.445-22.902 13.335-31.541C22.307 4.319 33.42 0 46.673 0c13.252 0 24.283 4.32 33.09 12.959 8.89 8.558 13.335 19.071 13.335 31.541 0 12.388-4.486 22.902-13.458 31.541zm-32.967-8.435c6.502 0 11.77-2.241 15.804-6.724 4.116-4.483 6.174-9.943 6.174-16.382 0-6.357-2.1-11.777-6.297-16.26-4.198-4.564-9.508-6.846-15.928-6.846-6.42 0-11.689 2.242-15.805 6.724-4.033 4.483-6.05 9.943-6.05 16.382 0 6.357 2.058 11.818 6.174 16.382 4.198 4.483 9.507 6.724 15.928 6.724zm71.991 19.682V39.855H99.155V21.15h62.477v18.704h-19.508v47.434h-23.46zM193.04 89c-6.668 0-12.142-.652-16.422-1.956-4.198-1.386-8.561-3.79-13.088-7.213l9.26-14.426c2.552 1.956 5.803 3.546 9.755 4.768 4.033 1.223 7.449 1.834 10.248 1.834 6.338 0 9.507-1.752 9.507-5.257 0-3.668-3.087-5.501-9.26-5.501h-8.396V46.7h8.272c5.186 0 7.779-1.874 7.779-5.623 0-1.223-.7-2.282-2.099-3.179-1.399-.896-3.375-1.344-5.927-1.344-2.963 0-6.173.652-9.631 1.956-3.457 1.222-6.255 2.77-8.396 4.645l-9.384-12.714c7.82-7.172 17.945-10.758 30.375-10.758 8.89 0 15.804 1.67 20.743 5.012 4.939 3.342 7.408 7.661 7.408 12.959 0 7.009-3.539 12.021-10.618 15.037 8.314 2.852 12.471 7.987 12.471 15.404 0 6.275-2.717 11.329-8.15 15.16-5.35 3.83-13.499 5.745-24.447 5.745zm113.097-1.712V21.15h23.46v66.138h-23.46zm-69.886 0V21.15h23.46v20.783h11.36c8.231 0 14.857 1.956 19.879 5.868 5.103 3.83 7.655 9.372 7.655 16.626 0 7.09-2.387 12.674-7.161 16.749-4.775 4.075-11.236 6.112-19.386 6.112h-35.807zm23.46-16.381h7.285c6.009 0 9.013-2.405 9.013-7.213 0-2.12-.823-3.79-2.469-5.013-1.564-1.222-3.745-1.834-6.544-1.834h-7.285v14.06zm82.529 16.381V21.15h39.635c8.149 0 14.24 1.997 18.274 5.99 2.881 2.69 4.321 6.276 4.321 10.758 0 6.846-3.457 11.777-10.372 14.793 4.281 1.386 7.45 3.382 9.508 5.99 2.14 2.527 3.21 5.99 3.21 10.392 0 5.705-2.222 10.188-6.667 13.448-4.445 3.178-10.66 4.767-18.645 4.767H342.24zm22.842-15.037h9.631c2.717 0 4.816-.53 6.297-1.589 1.564-1.14 2.346-2.69 2.346-4.646 0-1.793-.782-3.26-2.346-4.4-1.481-1.142-3.663-1.712-6.544-1.712h-9.384V72.25zm0-24.817h7.903c2.634 0 4.692-.53 6.173-1.59 1.482-1.059 2.223-2.485 2.223-4.278 0-1.712-.7-3.056-2.099-4.034-1.4-1.06-3.375-1.59-5.927-1.59h-8.273v11.492zm122.285 39.854V21.15h23.459v66.138h-23.459zm-69.886 0V21.15h23.46v20.783H452.3c8.232 0 14.858 1.956 19.879 5.868 5.104 3.83 7.656 9.372 7.656 16.626 0 7.09-2.387 12.674-7.162 16.749-4.774 4.075-11.236 6.112-19.385 6.112h-35.807zm23.46-16.381h7.285c6.009 0 9.013-2.405 9.013-7.213 0-2.12-.823-3.79-2.469-5.013-1.564-1.222-3.746-1.834-6.544-1.834h-7.285v14.06z" fill="#000"/><path fill-rule="evenodd" clip-rule="evenodd" d="M49.505 88.92c-11.89-.621-21.93-4.874-30.12-12.757C10.577 67.525 6.174 56.97 6.174 44.5c0-12.388 4.445-22.902 13.335-31.541C27.775 4.999 37.859.706 49.759.08A58.674 58.674 0 0046.673 0C33.42 0 22.307 4.32 13.335 12.959 4.445 21.598 0 32.112 0 44.5c0 12.47 4.404 23.024 13.212 31.663C22.102 84.721 33.173 89 46.426 89c1.04 0 2.066-.027 3.08-.08zm.27-21.495c5.096-.615 9.33-2.796 12.702-6.543 4.116-4.483 6.174-9.943 6.174-16.382 0-6.357-2.1-11.777-6.297-16.26-3.509-3.814-7.793-6.034-12.853-6.66a25.339 25.339 0 013.098-.186c6.42 0 11.73 2.282 15.928 6.846 4.198 4.483 6.297 9.903 6.297 16.26 0 6.439-2.058 11.9-6.173 16.382-4.034 4.483-9.302 6.724-15.805 6.724-1.053 0-2.077-.06-3.071-.181zm68.889-27.57v47.434h6.174V39.853h-6.174zm-13.335 0V21.15h-6.174v18.704h6.174zm62.477-5.962v-5.599c7.431-5.74 16.706-8.611 27.827-8.611 1.076 0 2.122.024 3.14.073-11.053.544-20.167 4.105-27.341 10.685l7.325 9.925c-1.57.831-2.941 1.761-4.115 2.79l-6.836-9.263zm27.808 2.904c1.184.22 2.178.586 2.982 1.101 1.399.897 2.099 1.956 2.099 3.179 0 3.749-2.593 5.623-7.779 5.623h6.174c5.186 0 7.779-1.874 7.779-5.623 0-1.223-.7-2.282-2.099-3.179-1.4-.896-3.375-1.344-5.927-1.344-1.046 0-2.122.08-3.229.243zm-4.797 9.904h-6.173v14.548h6.173V46.7zm2.223 14.548c6.173 0 9.26 1.833 9.26 5.501 0 2.837-2.077 4.526-6.232 5.066 1.03.127 1.996.19 2.898.19 6.339 0 9.508-1.751 9.508-5.256 0-3.668-3.087-5.501-9.261-5.501h-6.173zm-15.81 6.858c-1.661-.806-3.141-1.706-4.44-2.702l-9.26 14.426c4.527 3.423 8.89 5.827 13.088 7.213 4.28 1.304 9.754 1.956 16.422 1.956 1.034 0 2.044-.017 3.028-.051-5.264-.177-9.689-.812-13.276-1.905-4.199-1.386-8.561-3.79-13.089-7.213l7.527-11.724zM306.137 21.15v66.138h6.173V21.15h-6.173zm-69.886 0v66.139h6.174v-66.14h-6.174zm30.745 35.698c2.799 0 4.98.61 6.544 1.833 1.646 1.223 2.469 2.894 2.469 5.013 0 4.808-3.004 7.213-9.013 7.213h6.174c6.009 0 9.013-2.405 9.013-7.213 0-2.12-.823-3.79-2.469-5.013-1.564-1.222-3.746-1.834-6.544-1.834h-6.174zM342.24 21.15v66.138h6.174V21.15h-6.174zm32.226 38.754c2.881 0 5.063.57 6.544 1.711 1.564 1.141 2.346 2.608 2.346 4.401 0 1.956-.782 3.505-2.346 4.646-1.481 1.06-3.58 1.59-6.297 1.59h6.174c2.716 0 4.815-.53 6.297-1.59 1.564-1.14 2.346-2.69 2.346-4.646 0-1.793-.782-3.26-2.346-4.4-1.482-1.142-3.663-1.712-6.544-1.712h-6.174zm-1.111-23.962c2.552 0 4.527.53 5.927 1.59 1.399.978 2.099 2.322 2.099 4.034 0 1.793-.741 3.22-2.223 4.279-1.481 1.06-3.539 1.59-6.173 1.59h6.173c2.634 0 4.692-.53 6.174-1.59 1.482-1.06 2.222-2.486 2.222-4.28 0-1.71-.699-3.055-2.099-4.033-1.399-1.06-3.375-1.59-5.926-1.59h-6.174zM487.367 21.15v66.139h6.173v-66.14h-6.173zm-69.886 0v66.139h6.174v-66.14h-6.174zm30.745 35.698c2.798 0 4.98.61 6.544 1.833 1.646 1.223 2.469 2.894 2.469 5.013 0 4.808-3.004 7.213-9.013 7.213h6.173c6.009 0 9.014-2.405 9.014-7.213 0-2.12-.823-3.79-2.47-5.013-1.564-1.222-3.745-1.834-6.544-1.834h-6.173z" fill="#BC33DC"/></svg>