<svg width="1012" height="106" fill="none" xmlns="http://www.w3.org/2000/svg"><path d="M59.41 90.881V59.073c-6.627 3.895-14.33 5.842-23.107 5.842-9.467 0-16.868-2.683-22.203-8.05-5.336-5.366-8.004-12.81-8.004-22.33V0H31.14v27.394c0 4.934.947 8.569 2.84 10.906 1.98 2.25 5.164 3.376 9.553 3.376 6.54 0 11.832-1.645 15.877-4.934V0h25.043v90.881H59.409zm54.724 0V40.507H93.738V20.643h65.318v19.864H138.66v50.374h-24.526zm88.471 1.689c-11.015 0-20.18-3.55-27.495-10.647-7.315-7.184-10.973-15.883-10.973-26.096 0-10.127 3.658-18.782 10.973-25.966 7.401-7.184 16.652-10.776 27.753-10.776 11.016 0 20.181 3.592 27.496 10.776 7.315 7.097 10.972 15.753 10.972 25.966 0 10.127-3.7 18.782-11.101 25.966-7.315 7.184-16.523 10.776-27.625 10.776zm.258-20.904c4.389 0 7.918-1.514 10.586-4.544 2.667-3.029 4.001-6.794 4.001-11.295 0-4.328-1.42-8.05-4.26-11.165-2.84-3.116-6.368-4.674-10.585-4.674-4.389 0-7.917 1.514-10.585 4.544-2.668 3.03-4.002 6.794-4.002 11.295 0 4.328 1.42 8.05 4.26 11.166 2.84 3.115 6.369 4.673 10.585 4.673zm84.629 19.215V20.643h24.913l16.136 24.278 16.265-24.278h24.914v70.238h-24.527V56.217l-17.039 23.888-16.523-23.37v34.146h-24.139zm168.491 0V20.643h24.526v70.238h-24.526zm-73.063 0V20.643h24.526v22.071h11.876c8.606 0 15.533 2.078 20.783 6.232 5.336 4.068 8.003 9.954 8.003 17.657 0 7.53-2.495 13.46-7.487 17.787-4.991 4.328-11.746 6.491-20.266 6.491H382.92zm24.526-17.397h7.616c6.282 0 9.424-2.553 9.424-7.66 0-2.25-.861-4.025-2.582-5.323-1.635-1.298-3.916-1.947-6.842-1.947h-7.616v14.93zm116.79 31.679V71.017h6.454c2.152-6.232 3.701-12.766 4.647-19.604 1.033-6.838 1.549-15.97 1.549-27.394v-3.376h62.22v50.374h8.133l-2.324 34.146h-20.912V90.881h-36.531l-1.291 14.282h-21.945zm31.497-34.146h18.718v-30.77h-14.2v1.169c-.258 10.386-1.764 20.254-4.518 29.601zm92.726 21.553c-11.016 0-20.009-3.376-26.98-10.128-6.97-6.75-10.456-15.623-10.456-26.615 0-10.386 3.314-19.085 9.94-26.096 6.627-7.097 15.06-10.646 25.301-10.646 11.446 0 20.181 3.635 26.205 10.906 6.024 7.27 9.036 16.445 9.036 27.524 0 2.25-.043 3.938-.129 5.063h-46.73c1.98 7.703 7.014 11.555 15.103 11.555 5.508 0 10.672-2.38 15.491-7.14l13.554 11.295c-7.487 9.52-17.599 14.281-30.335 14.281zm-14.2-42.585h24.268c-.43-3.895-1.721-6.968-3.872-9.218-2.152-2.337-4.906-3.506-8.262-3.506-3.184 0-5.852 1.169-8.003 3.506-2.066 2.25-3.442 5.323-4.131 9.218zm71.833 40.766c-2.41.693-5.25 1.04-8.52 1.04-3.27 0-6.885-.347-10.843-1.04l1.032-19.085c1.807.26 3.141.39 4.002.39 1.119 0 2.022-.13 2.711-.39.688-.346 1.463-1.211 2.323-2.596.947-1.385 1.678-3.376 2.195-5.972.516-2.597.946-6.319 1.291-11.166.43-4.933.645-10.862.645-17.787V20.643h60.283v70.238h-24.526V40.247h-12.909v1.818c0 8.31-.473 15.493-1.42 21.552-.86 5.972-2.022 10.776-3.485 14.411-1.463 3.549-3.356 6.405-5.68 8.569-2.323 2.077-4.69 3.462-7.099 4.154zm88.255 1.689c-6.884 0-12.521-1.905-16.91-5.713-4.389-3.895-6.583-9.305-6.583-16.23 0-7.096 2.452-12.55 7.357-16.358 4.906-3.808 11.575-5.712 20.009-5.712 6.11 0 11.704.909 16.781 2.726v-1.168c0-7.617-4.647-11.425-13.941-11.425-6.282 0-12.694 1.298-19.234 3.895l-5.034-17.398c8.777-3.635 18.201-5.453 28.269-5.453 12.049 0 20.913 2.857 26.592 8.57 4.992 4.933 7.487 12.376 7.487 22.33v40.377h-24.268v-7.27c-5.25 5.885-12.091 8.828-20.525 8.828zm8.778-15.45c3.615 0 6.541-1.04 8.778-3.116 2.238-2.164 3.356-4.977 3.356-8.44V62.19c-2.84-1.212-6.024-1.818-9.552-1.818-3.528 0-6.282.822-8.262 2.467-1.979 1.558-2.969 3.722-2.969 6.491 0 2.337.775 4.198 2.324 5.583 1.635 1.385 3.743 2.077 6.325 2.077zm83.084 15.58c-11.015 0-20.008-3.376-26.979-10.128-6.97-6.75-10.456-15.623-10.456-26.615 0-10.386 3.314-19.085 9.94-26.096 6.626-7.097 15.06-10.646 25.301-10.646 11.446 0 20.18 3.635 26.204 10.906 6.024 7.27 9.037 16.445 9.037 27.524 0 2.25-.043 3.938-.13 5.063h-46.729c1.98 7.703 7.014 11.555 15.103 11.555 5.508 0 10.671-2.38 15.491-7.14l13.554 11.295c-7.487 9.52-17.599 14.281-30.336 14.281zM872.01 49.984h24.268c-.43-3.895-1.721-6.968-3.872-9.218-2.152-2.337-4.906-3.506-8.262-3.506-3.184 0-5.852 1.169-8.003 3.506-2.066 2.25-3.443 5.323-4.131 9.218zm57.762 40.897V20.643h24.914l16.136 24.278 16.264-24.278H1012v70.238h-24.526V56.217l-17.04 23.888-16.523-23.37v34.146h-24.139z" opacity=".4" fill="#D2302F"/><path d="M53.313 90.881V59.073c-6.627 3.895-14.329 5.842-23.107 5.842-9.466 0-16.867-2.683-22.203-8.05C2.668 51.5 0 44.056 0 34.536V0h25.043v27.394c0 4.934.946 8.569 2.84 10.906 1.979 2.25 5.163 3.376 9.552 3.376 6.54 0 11.833-1.645 15.878-4.934V0h25.042v90.881H53.313zm54.724 0V40.507H87.642V20.643h65.317v19.864h-20.395v50.374h-24.527zm88.472 1.689c-11.016 0-20.181-3.55-27.496-10.647-7.314-7.184-10.972-15.883-10.972-26.096 0-10.127 3.658-18.782 10.972-25.966 7.401-7.184 16.653-10.776 27.754-10.776 11.015 0 20.18 3.592 27.495 10.776 7.315 7.097 10.973 15.753 10.973 25.966 0 10.127-3.701 18.782-11.102 25.966-7.315 7.184-16.523 10.776-27.624 10.776zm.258-20.904c4.389 0 7.917-1.514 10.585-4.544 2.668-3.029 4.002-6.794 4.002-11.295 0-4.328-1.42-8.05-4.26-11.165-2.84-3.116-6.368-4.674-10.585-4.674-4.389 0-7.917 1.514-10.585 4.544-2.668 3.03-4.002 6.794-4.002 11.295 0 4.328 1.42 8.05 4.26 11.166 2.84 3.115 6.368 4.673 10.585 4.673zm84.628 19.215V20.643h24.914l16.136 24.278 16.265-24.278h24.913v70.238h-24.526V56.217l-17.04 23.888-16.523-23.37v34.146h-24.139zm168.491 0V20.643h24.527v70.238h-24.527zm-73.063 0V20.643h24.527v22.071h11.876c8.605 0 15.533 2.078 20.783 6.232 5.335 4.068 8.003 9.954 8.003 17.657 0 7.53-2.496 13.46-7.487 17.787-4.991 4.328-11.747 6.491-20.267 6.491h-37.435zm24.527-17.397h7.616c6.282 0 9.423-2.553 9.423-7.66 0-2.25-.86-4.025-2.582-5.323-1.635-1.298-3.915-1.947-6.841-1.947h-7.616v14.93zm116.79 31.679V71.017h6.454c2.151-6.232 3.7-12.766 4.647-19.604 1.033-6.838 1.549-15.97 1.549-27.394v-3.376h62.22v50.374h8.132l-2.323 34.146h-20.912V90.881h-36.532l-1.291 14.282H518.14zm31.497-34.146h18.717v-30.77h-14.199v1.169c-.258 10.386-1.764 20.254-4.518 29.601zm92.725 21.553c-11.015 0-20.008-3.376-26.979-10.128-6.971-6.75-10.456-15.623-10.456-26.615 0-10.386 3.313-19.085 9.94-26.096 6.626-7.097 15.06-10.646 25.301-10.646 11.445 0 20.18 3.635 26.204 10.906 6.024 7.27 9.036 16.445 9.036 27.524 0 2.25-.043 3.938-.129 5.063H628.55c1.979 7.703 7.014 11.555 15.103 11.555 5.508 0 10.671-2.38 15.49-7.14l13.554 11.295c-7.487 9.52-17.598 14.281-30.335 14.281zm-14.199-42.585h24.268c-.43-3.895-1.721-6.968-3.873-9.218-2.151-2.337-4.905-3.506-8.261-3.506-3.184 0-5.852 1.169-8.004 3.506-2.065 2.25-3.442 5.323-4.13 9.218zm71.832 40.766c-2.409.693-5.249 1.04-8.52 1.04-3.27 0-6.884-.347-10.843-1.04l1.033-19.085c1.807.26 3.141.39 4.002.39 1.118 0 2.022-.13 2.71-.39.689-.346 1.463-1.211 2.324-2.596.947-1.385 1.678-3.376 2.194-5.972.517-2.597.947-6.319 1.291-11.166.431-4.933.646-10.862.646-17.787V20.643h60.283v70.238h-24.526V40.247H717.68v1.818c0 8.31-.473 15.493-1.42 21.552-.861 5.972-2.022 10.776-3.485 14.411-1.463 3.549-3.357 6.405-5.68 8.569-2.324 2.077-4.69 3.462-7.1 4.154zm88.256 1.689c-6.885 0-12.522-1.905-16.91-5.713-4.389-3.895-6.584-9.305-6.584-16.23 0-7.096 2.453-12.55 7.358-16.358 4.905-3.808 11.575-5.712 20.008-5.712 6.111 0 11.704.909 16.782 2.726v-1.168c0-7.617-4.647-11.425-13.942-11.425-6.282 0-12.693 1.298-19.234 3.895l-5.034-17.398c8.778-3.635 18.201-5.453 28.27-5.453 12.048 0 20.912 2.857 26.592 8.57 4.991 4.933 7.487 12.376 7.487 22.33v40.377h-24.268v-7.27c-5.25 5.885-12.091 8.828-20.525 8.828zm8.778-15.45c3.614 0 6.54-1.04 8.778-3.116 2.237-2.164 3.356-4.977 3.356-8.44V62.19c-2.84-1.212-6.024-1.818-9.552-1.818-3.529 0-6.283.822-8.262 2.467-1.979 1.558-2.969 3.722-2.969 6.491 0 2.337.774 4.198 2.323 5.583 1.636 1.385 3.744 2.077 6.326 2.077zm83.084 15.58c-11.015 0-20.008-3.376-26.979-10.128-6.971-6.75-10.456-15.623-10.456-26.615 0-10.386 3.313-19.085 9.94-26.096 6.626-7.097 15.06-10.646 25.301-10.646 11.445 0 20.18 3.635 26.204 10.906 6.024 7.27 9.036 16.445 9.036 27.524 0 2.25-.043 3.938-.129 5.063h-46.729c1.979 7.703 7.013 11.555 15.103 11.555 5.507 0 10.671-2.38 15.49-7.14l13.554 11.295c-7.487 9.52-17.598 14.281-30.335 14.281zm-14.199-42.585h24.268c-.431-3.895-1.721-6.968-3.873-9.218-2.151-2.337-4.905-3.506-8.261-3.506-3.185 0-5.852 1.169-8.004 3.506-2.065 2.25-3.442 5.323-4.13 9.218zm57.762 40.896V20.643h24.913l16.136 24.278 16.265-24.278h24.91v70.238h-24.523V56.217l-17.039 23.888-16.523-23.37v34.146h-24.139z" fill="#1A1A1A"/><path fill-rule="evenodd" clip-rule="evenodd" d="M33.396 64.827c-8.088-.503-14.52-3.157-19.296-7.961-5.336-5.367-8.004-12.81-8.004-22.331V0H0v34.535c0 9.52 2.668 16.964 8.003 22.33 5.336 5.367 12.737 8.05 22.203 8.05 1.08 0 2.143-.03 3.19-.088zm19.917-2.834V90.88h6.096V59.073a40.074 40.074 0 01-6.096 2.92zM59.409 0h-6.096v36.742c-3.318 2.698-7.475 4.29-12.472 4.774.84.106 1.737.16 2.69.16 6.54 0 11.833-1.645 15.878-4.934V0zm48.628 90.881V40.507h6.097v50.374h-6.097zM93.738 20.643h-6.096v19.864h6.096V20.643zm75.275 61.28c7.315 7.097 16.48 10.646 27.496 10.646 1.033 0 2.05-.031 3.05-.093-9.669-.603-17.819-4.12-24.449-10.553-7.315-7.184-10.973-15.883-10.973-26.096 0-10.127 3.658-18.782 10.973-25.966 6.71-6.513 14.941-10.074 24.693-10.682a48.395 48.395 0 00-3.036-.094c-11.101 0-20.353 3.592-27.754 10.776-7.314 7.184-10.972 15.84-10.972 25.966 0 10.213 3.658 18.912 10.972 26.096zm30.871-10.538a15.34 15.34 0 002.979.281c4.389 0 7.918-1.514 10.585-4.544 2.668-3.029 4.002-6.794 4.002-11.295 0-4.328-1.42-8.05-4.26-11.165-2.84-3.116-6.368-4.674-10.585-4.674-1.092 0-2.131.094-3.116.281 2.927.577 5.462 2.041 7.605 4.393 2.84 3.116 4.26 6.837 4.26 11.165 0 4.5-1.334 8.266-4.002 11.295-2.004 2.276-4.493 3.697-7.468 4.263zm81.511 19.496V20.643h6.097v70.238h-6.097zm30.236-25.523l10.426 14.747 3.062-4.292-13.488-19.077v8.622zm27.466-.595v26.118h6.096V56.217l-6.096 8.546zm5.709-44.12h-6.096l-13.205 19.71 3.036 4.568 16.265-24.278zm105.08 0v70.238h6.097V20.643h-6.097zm-73.063 0v70.238h6.097V20.643h-6.097zm32.143 37.91c2.926 0 5.206.65 6.841 1.948 1.722 1.298 2.582 3.073 2.582 5.323 0 5.107-3.141 7.66-9.423 7.66h6.096c6.282 0 9.424-2.553 9.424-7.66 0-2.25-.861-4.025-2.582-5.323-1.635-1.298-3.916-1.947-6.842-1.947h-6.096zm109.174 46.61V71.017h6.096v34.146h-6.096zm59.767-14.282v14.282h6.096V90.881h-6.096zm-41.021-70.238h-6.096v3.376c0 11.425-.516 20.556-1.549 27.394-.947 6.838-2.496 13.372-4.647 19.604h6.096c2.152-6.232 3.701-12.766 4.647-19.604 1.033-6.838 1.549-15.97 1.549-27.394v-3.376zm31.468 50.374h6.097v-30.77h-6.097v30.77zm47.029 11.425c6.971 6.752 15.964 10.127 26.979 10.127 1.02 0 2.023-.03 3.009-.091-9.62-.581-17.584-3.926-23.892-10.036-6.97-6.75-10.456-15.623-10.456-26.615 0-10.386 3.314-19.085 9.94-26.096 5.989-6.414 13.454-9.93 22.395-10.547a50.546 50.546 0 00-3.19-.099c-10.241 0-18.675 3.549-25.301 10.646-6.627 7.011-9.94 15.71-9.94 26.096 0 10.992 3.485 19.864 10.456 26.615zm31.165-8.533c1.008.15 2.075.224 3.201.224 4.391 0 8.563-1.513 12.517-4.538l-3.123-2.602c-3.965 3.917-8.164 6.222-12.595 6.916zm2.01-33.142c2.152 2.25 3.443 5.323 3.873 9.218h6.096c-.43-3.895-1.721-6.968-3.872-9.218-2.152-2.337-4.906-3.506-8.262-3.506-1.048 0-2.041.127-2.977.38 1.985.516 3.699 1.558 5.142 3.126zm45.853 50.922c-.937.067-1.915.101-2.936.101-3.27 0-6.884-.346-10.843-1.039l1.033-19.085c1.807.26 3.141.39 4.002.39.806 0 1.501-.068 2.084-.203l-1.022 18.898c2.723.477 5.284.79 7.682.938zm36.178-51.442v50.634h6.096V40.247h-6.096zm-29.661-19.604v13.502c0 6.925-.215 12.854-.645 17.787-.345 4.847-.775 8.569-1.291 11.166-.517 2.596-1.248 4.587-2.195 5.972-.86 1.385-1.635 2.25-2.323 2.596-.689.26-1.592.39-2.711.39-.789 0-1.976-.11-3.562-.328.061-.02.119-.04.176-.062.689-.346 1.463-1.211 2.324-2.596.947-1.385 1.678-3.376 2.194-5.972.517-2.597.947-6.319 1.291-11.166.431-4.933.646-10.862.646-17.787V20.643h6.096zm70.413 66.084c4.388 3.808 10.025 5.712 16.91 5.712a33.88 33.88 0 003.033-.133c-5.512-.492-10.128-2.352-13.847-5.58-4.389-3.894-6.583-9.304-6.583-16.228 0-7.098 2.452-12.55 7.357-16.359 4.317-3.351 10-5.228 17.049-5.63a59.015 59.015 0 00-3.136-.082c-8.434 0-15.104 1.904-20.009 5.712-4.905 3.809-7.358 9.261-7.358 16.359 0 6.924 2.195 12.334 6.584 16.229zm37.556-37.271c2.111.43 4.146.996 6.104 1.697v-1.168c0-7.617-4.647-11.425-13.941-11.425-1.115 0-2.234.04-3.357.122 7.273.69 11.004 4.28 11.194 10.774zm-27.621-8.901a59.885 59.885 0 00-5.547 1.9l-5.034-17.398c8.778-3.635 18.201-5.453 28.27-5.453 1.007 0 1.991.02 2.954.06-8.893.341-17.269 2.139-25.127 5.393l4.484 15.498zm33.596 50.326v-7.27c-1.837 2.06-3.869 3.759-6.096 5.098v2.172h6.096zm-14.574-14.213c.869.214 1.812.321 2.827.321 3.615 0 6.541-1.038 8.778-3.115 2.238-2.164 3.356-4.977 3.356-8.44V62.19c-2.84-1.212-6.024-1.818-9.552-1.818-.983 0-1.906.064-2.769.192 2.232.265 4.307.807 6.225 1.626v3.245c0 3.463-1.119 6.276-3.356 8.44-1.519 1.41-3.355 2.341-5.509 2.794zm79.815 15.901c-11.015 0-20.008-3.376-26.979-10.127-6.971-6.75-10.456-15.623-10.456-26.615 0-10.386 3.313-19.085 9.94-26.096 6.626-7.097 15.06-10.646 25.3-10.646 1.089 0 2.152.033 3.191.099-8.941.617-16.406 4.133-22.395 10.547-6.626 7.011-9.94 15.71-9.94 26.096 0 10.992 3.486 19.864 10.456 26.615 6.308 6.11 14.272 9.455 23.892 10.036a49.53 49.53 0 01-3.009.091zm19.904-22.974l-3.123-2.602c-3.965 3.917-8.164 6.222-12.596 6.916a21.77 21.77 0 003.202.224c4.391 0 8.563-1.513 12.517-4.538zm-9.835-19.61h6.096c-.43-3.895-1.721-6.968-3.872-9.218-2.152-2.337-4.906-3.506-8.262-3.506-1.048 0-2.041.127-2.977.38 1.985.517 3.699 1.558 5.142 3.126 2.152 2.25 3.442 5.323 3.873 9.218zm33.494-29.342v70.238h6.096V20.643h-6.096zm44.109 19.71l3.036 4.568 16.265-24.278h-6.096l-13.205 19.71zm19.689 50.528V56.217l-6.097 8.547V90.88h6.097zm-20.075-15.068l-13.488-19.077v8.622l10.427 14.747 3.061-4.292z" fill="#BC33DC"/></svg>