<svg width="17" height="18" fill="none" xmlns="http://www.w3.org/2000/svg"><path d="M15.658 11.486a9.72 9.72 0 01-3.05-.485c-.475-.163-1.014-.037-1.326.281l-1.93 1.458c-2.215-1.182-3.632-2.598-4.798-4.797L5.972 6.06c.357-.357.485-.88.332-1.37a9.715 9.715 0 01-.488-3.054c0-.74-.602-1.342-1.342-1.342H1.342A1.342 1.342 0 000 1.635c0 8.633 7.025 15.658 15.658 15.658.74 0 1.342-.602 1.342-1.342v-3.123c0-.74-.602-1.342-1.342-1.342z" fill="url(#paint0_linear)"/><defs><linearGradient id="paint0_linear" x1="8.5" y1=".293" x2="8.5" y2="17.293" gradientUnits="userSpaceOnUse"><stop stop-color="#D2302F"/><stop offset="1" stop-color="#BC33DC"/></linearGradient></defs></svg>