<svg width="23" height="14" fill="none" xmlns="http://www.w3.org/2000/svg"><g filter="url(#filter0_d)"><path d="M11.275 11.95h1.255s.38-.043.572-.252c.179-.192.172-.552.172-.552s-.025-1.686.758-1.935c.77-.244 1.76 1.63 2.809 2.352.793.545 1.395.426 1.395.426l2.805-.04s1.468-.09.772-1.246c-.057-.094-.406-.854-2.086-2.416-1.759-1.635-1.523-1.37.596-4.197 1.29-1.722 1.806-2.774 1.645-3.224-.154-.428-1.103-.315-1.103-.315L17.71.569s-.234-.031-.409.073c-.169.102-.278.339-.278.339s-.5 1.333-1.167 2.466c-1.405 2.391-1.969 2.517-2.198 2.369-.535-.346-.4-1.391-.4-2.132 0-2.318.35-3.284-.684-3.534-.344-.083-.597-.138-1.475-.147C9.973-.01 9.02.007 8.48.27c-.36.176-.636.57-.467.591.209.028.681.128.932.47.324.44.313 1.431.313 1.431s.186 2.728-.435 3.067c-.427.233-1.01-.242-2.264-2.412-.642-1.11-1.128-2.34-1.128-2.34S5.337.85 5.17.728A1.307 1.307 0 004.685.53l-3 .019s-.451.013-.616.209c-.147.174-.012.535-.012.535s2.35 5.504 5.009 8.279c2.44 2.543 5.21 2.376 5.21 2.376z" fill="url(#paint0_linear)"/></g><defs><linearGradient id="paint0_linear" x1="11.5" y1="0" x2="11.5" y2="12" gradientUnits="userSpaceOnUse"><stop stop-color="#D2302F"/><stop offset="1" stop-color="#BC33DC"/></linearGradient><filter id="filter0_d" x="0" y="0" width="23" height="14" filterUnits="userSpaceOnUse" color-interpolation-filters="sRGB"><feFlood flood-opacity="0" result="BackgroundImageFix"/><feColorMatrix in="SourceAlpha" values="0 0 0 0 0 0 0 0 0 0 0 0 0 0 0 0 0 0 127 0"/><feOffset dy="1"/><feGaussianBlur stdDeviation=".5"/><feColorMatrix values="0 0 0 0 0 0 0 0 0 0 0 0 0 0 0 0 0 0 0.25 0"/><feBlend in2="BackgroundImageFix" result="effect1_dropShadow"/><feBlend in="SourceGraphic" in2="effect1_dropShadow" result="shape"/></filter></defs></svg>